# Blender v3.6.0 OBJ File: 'LMS Standard Semaphore Minecraft.blend'
# www.blender.org
mtllib LMS_Post_Wood_55.mtl
o Wood_55_plate_Cube.039
v 0.583160 0.000701 0.414320
v 0.583160 -0.000234 0.585680
v 0.416840 -0.000234 0.585680
v 0.416840 -0.000234 0.414320
v 0.416840 1.000700 0.585680
v 0.416840 1.000700 0.414320
v 0.583160 1.001503 0.414320
v 0.583160 1.000700 0.585680
v 0.325000 0.325000 0.376247
v 0.325000 0.675000 0.376247
v 0.325000 0.325000 0.351247
v 0.325000 0.675000 0.351247
v 0.675000 0.325000 0.376247
v 0.675000 0.675000 0.376247
v 0.675000 0.325000 0.351247
v 0.675000 0.675000 0.351247
v 0.062500 0.500000 0.376247
v 0.062500 0.500000 0.351247
v 0.937500 0.500000 0.351247
v 0.937500 0.500000 0.376247
vt 0.375000 0.000000
vt 0.250000 0.750000
vt 0.250000 0.000000
vt 0.375000 0.000000
vt 0.500000 0.750000
vt 0.375000 0.750000
vt 0.125000 0.000000
vt 0.000000 0.750000
vt 0.000000 0.000000
vt 0.125000 0.750000
vt 0.125000 0.000000
vt 0.625000 0.875000
vt 0.500000 1.000000
vt 0.500000 0.875000
vt 0.375000 0.750000
vt 0.500000 0.000000
vt 0.125000 0.750000
vt 0.625000 1.000000
vt 0.025485 0.321605
vt 0.000000 0.000000
vt 0.025485 0.000000
vt 0.050970 0.624381
vt 0.229365 -0.000000
vt 0.229365 0.891973
vt -0.000000 1.000000
vt 0.025485 0.678395
vt 0.025485 1.000000
vt 0.586154 0.000000
vt 0.764549 0.624381
vt 0.586154 0.891973
vt 0.050970 0.321605
vt 0.025485 0.678395
vt 0.025485 0.321605
vt 0.000000 0.321605
vt 0.000000 0.678395
vt 0.407759 0.624381
vt 0.407759 0.267592
vt 0.050970 1.000000
vt 0.050970 0.678395
vt 0.407759 0.267592
vt 0.407759 0.624381
vt 0.050970 0.267592
vt 0.764549 0.267592
vt 0.050970 0.000000
vn 0.0000 0.0000 1.0000
vn 0.0000 0.0000 -1.0000
vn 1.0000 0.0000 0.0000
vn -1.0000 0.0000 -0.0000
vn 0.0000 1.0000 0.0000
vn -0.0048 1.0000 0.0047
vn -0.5547 0.8321 0.0000
vn 0.5547 0.8321 0.0000
vn 0.0000 -1.0000 0.0000
vn 0.5547 -0.8320 0.0000
vn -0.5547 -0.8321 0.0000
vn 0.5547 0.8320 0.0000
vn 0.5547 -0.8321 0.0000
usemtl minisema
s off
f 2/1/1 5/2/1 3/3/1
f 1/4/2 6/5/2 7/6/2
f 1/7/3 8/8/3 2/9/3
f 3/3/4 6/10/4 4/11/4
f 8/12/5 6/13/5 5/14/5
f 2/1/1 8/15/1 5/2/1
f 1/4/2 4/16/2 6/5/2
f 1/7/3 7/17/3 8/8/3
f 3/3/4 5/2/4 6/10/4
f 8/12/6 7/18/6 6/13/6
usemtl Lattice
f 10/19/7 18/20/7 17/21/7
f 12/22/2 19/23/2 18/24/2
f 19/25/8 14/26/8 20/27/8
f 20/28/1 10/29/1 17/30/1
f 11/31/9 13/32/9 9/33/9
f 12/34/5 14/26/5 16/35/5
f 20/28/1 9/36/1 13/37/1
f 19/38/10 13/32/10 15/39/10
f 18/24/2 15/40/2 11/41/2
f 17/21/11 11/31/11 9/33/11
f 10/19/7 12/34/7 18/20/7
f 12/22/2 16/42/2 19/23/2
f 19/25/12 16/35/12 14/26/12
f 20/28/1 14/43/1 10/29/1
f 11/31/9 15/39/9 13/32/9
f 12/34/5 10/19/5 14/26/5
f 20/28/1 17/30/1 9/36/1
f 19/38/13 20/27/13 13/32/13
f 18/24/2 19/23/2 15/40/2
f 17/21/11 18/44/11 11/31/11
