# Blender v3.6.0 OBJ File: 'LMS Standard Semaphore Minecraft.blend'
# www.blender.org
mtllib LMS_Post_rail_mid.mtl
o Railpost_Cube.025
v 0.496230 0.000000 0.404759
v 0.403770 0.000000 0.404759
v 0.411191 0.000000 0.595228
v 0.403770 0.000000 0.587807
v 0.403770 0.000000 0.551968
v 0.488809 0.000000 0.595228
v 0.496230 0.000000 0.551968
v 0.496230 0.000000 0.587807
v 0.411122 0.000000 0.448497
v 0.403770 0.000000 0.439326
v 0.496230 0.000000 0.439326
v 0.488878 0.000000 0.448497
v 0.426313 0.000000 0.548374
v 0.434590 0.000000 0.538673
v 0.465410 0.000000 0.538673
v 0.473687 0.000000 0.548374
v 0.434590 0.000000 0.462108
v 0.426409 0.000000 0.451903
v 0.473591 0.000000 0.451903
v 0.465410 0.000000 0.462108
v 0.503770 0.000000 0.595241
v 0.596230 0.000000 0.595241
v 0.588809 0.000000 0.404772
v 0.596230 0.000000 0.412193
v 0.596230 0.000000 0.448032
v 0.511191 0.000000 0.404772
v 0.503770 0.000000 0.448032
v 0.503770 0.000000 0.412193
v 0.588878 0.000000 0.551503
v 0.596230 0.000000 0.560674
v 0.503770 0.000000 0.560674
v 0.511122 0.000000 0.551503
v 0.573687 0.000000 0.451626
v 0.565410 0.000000 0.461327
v 0.534590 0.000000 0.461327
v 0.526313 0.000000 0.451626
v 0.565410 0.000000 0.537892
v 0.573591 0.000000 0.548097
v 0.526409 0.000000 0.548097
v 0.534590 0.000000 0.537892
v 0.496230 1.000000 0.404759
v 0.403770 1.000000 0.404759
v 0.411191 1.000000 0.595228
v 0.403770 1.000000 0.587807
v 0.403770 1.000000 0.551968
v 0.488809 1.000000 0.595228
v 0.496230 1.000000 0.551968
v 0.496230 1.000000 0.587807
v 0.411122 1.000000 0.448497
v 0.403770 1.000000 0.439326
v 0.496230 1.000000 0.439326
v 0.488878 1.000000 0.448497
v 0.426313 1.000000 0.548374
v 0.434590 1.000000 0.538673
v 0.465410 1.000000 0.538673
v 0.473687 1.000000 0.548374
v 0.434590 1.000000 0.462108
v 0.426409 1.000000 0.451903
v 0.473591 1.000000 0.451903
v 0.465410 1.000000 0.462108
v 0.503770 1.000000 0.595241
v 0.596230 1.000000 0.595241
v 0.588809 1.000000 0.404772
v 0.596230 1.000000 0.412193
v 0.596230 1.000000 0.448031
v 0.511191 1.000000 0.404772
v 0.503770 1.000000 0.448031
v 0.503770 1.000000 0.412193
v 0.588878 1.000000 0.551503
v 0.596230 1.000000 0.560674
v 0.503770 1.000000 0.560674
v 0.511122 1.000000 0.551503
v 0.573687 1.000000 0.451626
v 0.565410 1.000000 0.461327
v 0.534590 1.000000 0.461327
v 0.526313 1.000000 0.451626
v 0.565410 1.000000 0.537892
v 0.573591 1.000000 0.548097
v 0.526409 1.000000 0.548097
v 0.534590 1.000000 0.537892
vt 0.017690 0.897433
vt 0.054867 0.897433
vt 0.066733 0.934200
vt 0.127423 0.821501
vt 0.090247 0.821501
vt 0.078381 0.784733
vt 0.199905 0.821729
vt 0.162879 0.821729
vt 0.145114 0.784733
vt 0.235436 0.897205
vt 0.272462 0.897205
vt 0.290227 0.934201
vt 0.381014 0.000000
vt 0.308457 0.784733
vt 0.308457 0.000000
vt 0.125190 0.000000
vt 0.064281 0.784733
vt 0.064281 0.000000
vt 0.056045 0.784733
vt 0.056044 0.000000
vt 0.027921 0.784733
vt 0.027921 0.000000
vt 0.161549 0.000000
vt 0.133426 0.784733
vt 0.133426 0.000000
vt 0.125190 0.784733
vt 0.417363 -0.000000
vt 0.408139 0.784733
vt 0.408139 -0.000000
vt 0.381014 0.784733
vt 0.281331 0.784733
vt 0.281331 0.000000
vt 0.272107 0.784733
vt 0.272107 0.000000
vt 0.010007 0.000000
vt 0.000000 0.784733
vt 0.000000 0.000000
vt 0.189470 0.000000
vt 0.179463 0.784733
vt 0.179463 0.000000
vt 0.439917 0.000000
vt 0.429653 0.784733
vt 0.429653 0.000000
vt 0.259817 0.000000
vt 0.249553 0.784733
vt 0.249553 0.000000
vt 0.010008 0.784733
vt 0.500000 -0.000000
vt 0.439917 0.784733
vt 0.189470 0.784733
vt 0.161549 0.784733
vt 0.417363 0.784733
vt 0.259817 0.784733
vt 0.485242 0.110735
vt 0.557799 0.895468
vt 0.485242 0.895468
vt 0.597268 -0.000000
vt 0.536360 0.784733
vt 0.536360 0.000000
vt 0.528123 0.784733
vt 0.528123 0.000000
vt 0.500000 0.784733
vt 0.500000 -0.000000
vt 0.633628 0.000000
vt 0.605505 0.784733
vt 0.605505 -0.000000
vt 0.597269 0.784733
vt 0.594148 0.110735
vt 0.584924 0.895468
vt 0.584924 0.110735
vt 0.557799 0.110735
vt 0.458116 0.895468
vt 0.458116 0.110735
vt 0.448892 0.895468
vt 0.448892 0.110735
vt 0.686792 0.110735
vt 0.676785 0.895468
vt 0.676785 0.110735
vt 0.356248 0.110735
vt 0.366255 0.895468
vt 0.356248 0.895468
vt 0.616702 0.110735
vt 0.606438 0.895468
vt 0.606438 0.110735
vt 0.436602 0.110735
vt 0.426338 0.895468
vt 0.426338 0.110735
vt 0.704706 0.110735
vt 0.686792 0.895468
vt 0.616702 0.895468
vt 0.366255 0.110735
vt 0.651542 -0.000000
vt 0.633628 0.784733
vt 0.594148 0.895468
vt 0.436602 0.895468
vt 0.017766 0.821729
vt 0.005770 0.819056
vt 0.000000 0.811859
vt 0.000000 0.784733
vt 0.072557 0.784733
vt 0.072557 0.811859
vt 0.054791 0.821729
vt 0.066787 0.819056
vt 0.024186 0.829737
vt 0.048371 0.829737
vt 0.024186 0.889820
vt 0.048371 0.889820
vt 0.000000 0.928377
vt 0.000000 0.900253
vt 0.072557 0.900253
vt 0.072557 0.928376
vt 0.005824 0.934201
vt 0.127348 0.897205
vt 0.139344 0.899878
vt 0.145114 0.907075
vt 0.145114 0.934201
vt 0.072557 0.934201
vt 0.072557 0.907075
vt 0.090322 0.897205
vt 0.078327 0.899878
vt 0.120928 0.889197
vt 0.096742 0.889197
vt 0.120928 0.829114
vt 0.096742 0.829114
vt 0.145114 0.790557
vt 0.145114 0.818681
vt 0.072557 0.818681
vt 0.072557 0.790557
vt 0.139290 0.784733
vt 0.199980 0.897433
vt 0.217670 0.900253
vt 0.217670 0.928377
vt 0.211846 0.934201
vt 0.150938 0.934201
vt 0.145114 0.928377
vt 0.162804 0.897433
vt 0.145114 0.900253
vt 0.193485 0.889820
vt 0.169299 0.889820
vt 0.193485 0.829737
vt 0.169299 0.829737
vt 0.217670 0.811859
vt 0.211901 0.819056
vt 0.150883 0.819056
vt 0.145114 0.811859
vt 0.217670 0.784733
vt 0.235360 0.821501
vt 0.217670 0.818681
vt 0.217670 0.790557
vt 0.223494 0.784733
vt 0.284403 0.784733
vt 0.290227 0.790557
vt 0.272537 0.821501
vt 0.290227 0.818681
vt 0.241856 0.829114
vt 0.266041 0.829114
vt 0.241856 0.889197
vt 0.266041 0.889197
vt 0.217670 0.907075
vt 0.223440 0.899878
vt 0.284457 0.899878
vt 0.290227 0.907075
vt 0.217670 0.934201
vt 0.500000 0.784733
vt 0.704706 0.895468
vt 0.651542 0.784733
vn 0.0000 -1.0000 0.0000
vn 0.0000 1.0000 -0.0000
vn 0.0000 -0.0000 -1.0000
vn 0.0000 0.0000 1.0000
vn -0.7071 0.0000 0.7071
vn -1.0000 0.0000 -0.0000
vn 1.0000 0.0000 0.0000
vn 0.7071 0.0000 0.7071
vn -0.7802 0.0000 0.6255
vn 0.7802 0.0000 0.6255
vn -0.7607 0.0000 -0.6491
vn 0.7607 0.0000 -0.6491
vn -0.1574 0.0000 -0.9875
vn 0.1574 -0.0000 -0.9875
vn -0.2175 0.0000 0.9761
vn 0.2175 0.0000 0.9761
vn 0.7071 -0.0000 -0.7071
vn -0.7071 -0.0000 -0.7071
vn 0.7802 -0.0000 -0.6255
vn -0.7802 -0.0000 -0.6255
vn 0.7607 -0.0000 0.6491
vn -0.7607 0.0000 0.6491
vn 0.1574 0.0000 0.9875
vn -0.1574 0.0000 0.9875
vn 0.2175 -0.0000 -0.9761
vn -0.2175 0.0000 -0.9761
usemtl Post
s off
f 13/1/1 16/2/1 6/3/1
f 33/4/1 36/5/1 26/6/1
f 58/7/2 59/8/2 41/9/2
f 78/10/2 79/11/2 61/12/2
f 2/13/3 41/14/3 1/15/3
f 6/16/4 43/17/4 3/18/4
f 3/18/5 44/19/5 4/20/5
f 4/20/6 45/21/6 5/22/6
f 7/23/7 48/24/7 8/25/7
f 8/25/8 46/26/8 6/16/8
f 9/27/9 50/28/9 10/29/9
f 10/29/6 42/30/6 2/13/6
f 1/15/7 51/31/7 11/32/7
f 11/32/10 52/33/10 12/34/10
f 13/35/11 54/36/11 14/37/11
f 15/38/12 56/39/12 16/40/12
f 17/41/9 58/42/9 18/43/9
f 19/44/10 60/45/10 20/46/10
f 5/22/13 53/47/13 13/35/13
f 14/48/6 57/49/6 17/41/6
f 20/46/7 55/50/7 15/38/7
f 16/40/14 47/51/14 7/23/14
f 18/43/15 49/52/15 9/27/15
f 12/34/16 59/53/16 19/44/16
f 21/54/4 62/55/4 61/56/4
f 26/57/3 63/58/3 23/59/3
f 23/59/17 64/60/17 24/61/17
f 24/61/7 65/62/7 25/63/7
f 27/64/6 68/65/6 28/66/6
f 28/66/18 66/67/18 26/57/18
f 29/68/19 70/69/19 30/70/19
f 30/70/7 62/55/7 22/71/7
f 21/54/6 71/72/6 31/73/6
f 31/73/20 72/74/20 32/75/20
f 33/76/21 74/77/21 34/78/21
f 36/79/22 75/80/22 76/81/22
f 37/82/19 78/83/19 38/84/19
f 39/85/20 80/86/20 40/87/20
f 25/88/23 73/89/23 33/76/23
f 34/78/7 77/90/7 37/82/7
f 40/87/6 75/80/6 35/91/6
f 36/92/24 67/93/24 27/64/24
f 38/84/25 69/94/25 29/68/25
f 32/75/26 79/95/26 39/85/26
f 18/96/1 9/97/1 10/98/1
f 10/98/1 2/99/1 18/96/1
f 2/99/1 1/100/1 18/96/1
f 1/100/1 11/101/1 19/102/1
f 11/101/1 12/103/1 19/102/1
f 17/104/1 18/96/1 19/102/1
f 18/96/1 1/100/1 19/102/1
f 19/102/1 20/105/1 17/104/1
f 14/106/1 17/104/1 20/105/1
f 14/106/1 20/105/1 15/107/1
f 4/108/1 5/109/1 13/1/1
f 13/1/1 14/106/1 15/107/1
f 16/2/1 7/110/1 8/111/1
f 13/1/1 15/107/1 16/2/1
f 3/112/1 4/108/1 13/1/1
f 8/111/1 6/3/1 16/2/1
f 6/3/1 3/112/1 13/1/1
f 38/113/1 29/114/1 30/115/1
f 30/115/1 22/116/1 38/113/1
f 22/116/1 21/117/1 38/113/1
f 21/117/1 31/118/1 39/119/1
f 31/118/1 32/120/1 39/119/1
f 37/121/1 38/113/1 39/119/1
f 38/113/1 21/117/1 39/119/1
f 39/119/1 40/122/1 37/121/1
f 34/123/1 37/121/1 35/124/1
f 37/121/1 40/122/1 35/124/1
f 24/125/1 25/126/1 33/4/1
f 33/4/1 34/123/1 35/124/1
f 36/5/1 27/127/1 28/128/1
f 33/4/1 35/124/1 36/5/1
f 23/129/1 24/125/1 33/4/1
f 28/128/1 26/6/1 36/5/1
f 26/6/1 23/129/1 33/4/1
f 53/130/2 45/131/2 44/132/2
f 44/132/2 43/133/2 53/130/2
f 43/133/2 46/134/2 53/130/2
f 46/134/2 48/135/2 56/136/2
f 48/135/2 47/137/2 56/136/2
f 54/138/2 53/130/2 56/136/2
f 53/130/2 46/134/2 56/136/2
f 56/136/2 55/139/2 54/138/2
f 57/140/2 54/138/2 55/139/2
f 57/140/2 55/139/2 60/141/2
f 50/142/2 49/143/2 58/7/2
f 58/7/2 57/140/2 60/141/2
f 59/8/2 52/144/2 51/145/2
f 58/7/2 60/141/2 59/8/2
f 42/146/2 50/142/2 58/7/2
f 51/145/2 41/9/2 59/8/2
f 41/9/2 42/146/2 58/7/2
f 73/147/2 65/148/2 64/149/2
f 64/149/2 63/150/2 73/147/2
f 63/150/2 66/151/2 73/147/2
f 66/151/2 68/152/2 76/153/2
f 68/152/2 67/154/2 76/153/2
f 74/155/2 73/147/2 76/153/2
f 73/147/2 66/151/2 76/153/2
f 76/153/2 75/156/2 74/155/2
f 77/157/2 74/155/2 80/158/2
f 74/155/2 75/156/2 80/158/2
f 70/159/2 69/160/2 78/10/2
f 78/10/2 77/157/2 80/158/2
f 79/11/2 72/161/2 71/162/2
f 78/10/2 80/158/2 79/11/2
f 62/163/2 70/159/2 78/10/2
f 71/162/2 61/12/2 79/11/2
f 61/12/2 62/163/2 78/10/2
f 2/13/3 42/30/3 41/14/3
f 6/16/4 46/26/4 43/17/4
f 3/18/5 43/17/5 44/19/5
f 4/20/6 44/19/6 45/21/6
f 7/23/7 47/51/7 48/24/7
f 8/25/8 48/24/8 46/26/8
f 9/27/9 49/52/9 50/28/9
f 10/29/6 50/28/6 42/30/6
f 1/15/7 41/14/7 51/31/7
f 11/32/10 51/31/10 52/33/10
f 13/35/11 53/47/11 54/36/11
f 15/38/12 55/50/12 56/39/12
f 17/41/9 57/49/9 58/42/9
f 19/44/10 59/53/10 60/45/10
f 5/22/13 45/21/13 53/47/13
f 14/48/6 54/164/6 57/49/6
f 20/46/7 60/45/7 55/50/7
f 16/40/14 56/39/14 47/51/14
f 18/43/15 58/42/15 49/52/15
f 12/34/16 52/33/16 59/53/16
f 21/54/4 22/71/4 62/55/4
f 26/57/3 66/67/3 63/58/3
f 23/59/17 63/58/17 64/60/17
f 24/61/7 64/60/7 65/62/7
f 27/64/6 67/93/6 68/65/6
f 28/66/18 68/65/18 66/67/18
f 29/68/19 69/94/19 70/69/19
f 30/70/7 70/69/7 62/55/7
f 21/54/6 61/56/6 71/72/6
f 31/73/20 71/72/20 72/74/20
f 33/76/21 73/89/21 74/77/21
f 36/79/22 35/91/22 75/80/22
f 37/82/19 77/90/19 78/83/19
f 39/85/20 79/95/20 80/86/20
f 25/88/23 65/165/23 73/89/23
f 34/78/7 74/77/7 77/90/7
f 40/87/6 80/86/6 75/80/6
f 36/92/24 76/166/24 67/93/24
f 38/84/25 78/83/25 69/94/25
f 32/75/26 72/74/26 79/95/26
