# Blender v3.6.0 OBJ File: 'LMS Standard Semaphore Minecraft.blend'
# www.blender.org
mtllib LMS_Post_rail_top.mtl
o Railpost_top_Cube.034
v 0.496230 0.000000 0.404759
v 0.403770 0.000000 0.404759
v 0.411191 0.000000 0.595228
v 0.403770 0.000000 0.587807
v 0.403770 0.000000 0.551968
v 0.488809 0.000000 0.595228
v 0.496230 0.000000 0.551968
v 0.496230 0.000000 0.587807
v 0.411122 0.000000 0.448497
v 0.403770 0.000000 0.439326
v 0.496230 0.000000 0.439326
v 0.488878 0.000000 0.448497
v 0.426313 0.000000 0.548374
v 0.434590 0.000000 0.538673
v 0.465410 0.000000 0.538673
v 0.473687 0.000000 0.548374
v 0.434590 0.000000 0.462108
v 0.426409 0.000000 0.451903
v 0.473591 0.000000 0.451903
v 0.465410 0.000000 0.462108
v 0.503770 0.000000 0.595241
v 0.596230 0.000000 0.595241
v 0.588809 0.000000 0.404772
v 0.596230 0.000000 0.412193
v 0.596230 0.000000 0.448032
v 0.511191 0.000000 0.404772
v 0.503770 0.000000 0.448032
v 0.503770 0.000000 0.412193
v 0.588878 0.000000 0.551503
v 0.596230 0.000000 0.560674
v 0.503770 0.000000 0.560674
v 0.511122 0.000000 0.551503
v 0.573687 0.000000 0.451626
v 0.565410 0.000000 0.461327
v 0.534590 0.000000 0.461327
v 0.526313 0.000000 0.451626
v 0.565410 0.000000 0.537892
v 0.573591 0.000000 0.548097
v 0.526409 0.000000 0.548097
v 0.534590 0.000000 0.537892
v 0.496230 0.884059 0.404759
v 0.403770 0.884059 0.404759
v 0.411191 0.884059 0.595228
v 0.403770 0.884059 0.587807
v 0.403770 0.884059 0.551968
v 0.488809 0.884059 0.595228
v 0.496230 0.884059 0.551968
v 0.496230 0.884059 0.587807
v 0.411122 0.884059 0.448497
v 0.403770 0.884059 0.439326
v 0.496230 0.884059 0.439326
v 0.488878 0.884059 0.448497
v 0.426313 0.884059 0.548374
v 0.434590 0.884059 0.538673
v 0.465410 0.884059 0.538673
v 0.473687 0.884059 0.548374
v 0.434590 0.884059 0.462108
v 0.426409 0.884059 0.451903
v 0.473591 0.884059 0.451903
v 0.465410 0.884059 0.462108
v 0.503770 0.884059 0.595241
v 0.596230 0.884059 0.595241
v 0.588809 0.884059 0.404772
v 0.596230 0.884059 0.412193
v 0.596230 0.884059 0.448032
v 0.511191 0.884059 0.404772
v 0.503770 0.884059 0.448031
v 0.503770 0.884059 0.412193
v 0.588878 0.884059 0.551503
v 0.596230 0.884059 0.560674
v 0.503770 0.884059 0.560674
v 0.511122 0.884059 0.551503
v 0.573687 0.884059 0.451626
v 0.565410 0.884059 0.461327
v 0.534590 0.884059 0.461327
v 0.526313 0.884059 0.451626
v 0.565410 0.884059 0.537892
v 0.573591 0.884059 0.548097
v 0.526409 0.884059 0.548097
v 0.534590 0.884059 0.537892
v 0.583160 0.858130 0.414320
v 0.583160 0.858130 0.585680
v 0.416840 0.858130 0.585680
v 0.416840 0.858130 0.414320
v 0.604020 0.878030 0.392827
v 0.604020 0.878030 0.607173
v 0.395979 0.878030 0.607173
v 0.395979 0.878030 0.392827
v 0.589415 0.858130 0.408065
v 0.589415 0.858130 0.591935
v 0.410585 0.858130 0.591935
v 0.410585 0.858130 0.408065
v 0.589415 0.878030 0.408065
v 0.589415 0.878030 0.591935
v 0.410585 0.878030 0.591935
v 0.410585 0.878030 0.408065
v 0.604020 0.898796 0.392827
v 0.604020 0.898796 0.607173
v 0.395979 0.898796 0.607173
v 0.395979 0.898796 0.392827
v 0.500000 0.999972 0.500000
v 0.614706 0.898796 0.366626
v 0.630222 0.898796 0.382142
v 0.619251 0.898796 0.377597
v 0.630222 0.898796 0.617858
v 0.614706 0.898796 0.633374
v 0.619251 0.898796 0.622403
v 0.385294 0.898796 0.633374
v 0.369778 0.898796 0.617858
v 0.380749 0.898796 0.622403
v 0.369778 0.898796 0.382142
v 0.385294 0.898796 0.366626
v 0.380749 0.898796 0.377597
v 0.630222 0.925317 0.382142
v 0.614706 0.925317 0.366626
v 0.620160 0.931086 0.376932
v 0.614706 0.925317 0.633374
v 0.630222 0.925317 0.617858
v 0.620160 0.931086 0.623068
v 0.369778 0.925317 0.617858
v 0.385294 0.925317 0.633374
v 0.379840 0.931086 0.623068
v 0.385294 0.925317 0.366626
v 0.369778 0.925317 0.382142
v 0.379840 0.931086 0.376932
vt 0.293169 0.847731
vt 0.254664 0.847731
vt 0.236188 0.809257
vt 0.097205 0.926223
vt 0.135710 0.926223
vt 0.154186 0.964697
vt 0.182611 0.856059
vt 0.232915 0.958640
vt 0.157459 0.958640
vt 0.050304 0.917895
vt 0.000000 0.815313
vt 0.075456 0.815313
vt 0.541287 -0.000000
vt 0.465830 0.809257
vt 0.465831 -0.000000
vt 0.547343 0.809257
vt 0.610686 -0.000000
vt 0.610686 0.809257
vt 0.616743 -0.000000
vt 0.616743 0.809257
vt 0.568246 0.809257
vt 0.597493 0.000000
vt 0.597493 0.809257
vt 0.538998 0.809257
vt 0.568246 0.000000
vt 0.568245 0.809257
vt 0.541287 0.809257
vt 0.547344 -0.000000
vt 0.438362 0.000000
vt 0.430878 0.809257
vt 0.430878 0.000000
vt 0.402668 0.809257
vt 0.402668 0.000000
vt 0.474056 0.809257
vt 0.502266 0.000000
vt 0.502266 0.809257
vt 0.509751 0.000000
vt 0.509750 0.809257
vt 0.078729 0.000000
vt 0.070812 0.809257
vt 0.070812 0.000000
vt 0.157459 0.809257
vt 0.149541 -0.000000
vt 0.157459 -0.000000
vt 0.008328 -0.000000
vt 0.000000 0.809257
vt 0.000000 -0.000000
vt 0.078729 0.809257
vt 0.087058 -0.000000
vt 0.087057 0.809257
vt 0.626740 0.000000
vt 0.645137 0.809257
vt 0.626740 0.809257
vt 0.008328 0.809257
vt 0.149541 0.809257
vt 0.681932 0.809257
vt 0.700329 0.000000
vt 0.700329 0.809257
vt 0.700329 0.809257
vt 0.712804 0.000000
vt 0.712804 0.809257
vt 0.750230 0.000000
vt 0.737755 0.809257
vt 0.737755 0.000000
vt 0.390374 0.809257
vt 0.465830 -0.000000
vt 0.465830 0.809257
vt 0.384317 0.000000
vt 0.320974 0.809257
vt 0.320974 0.000000
vt 0.314918 0.809257
vt 0.314918 0.000000
vt 0.626740 0.000000
vt 0.597493 0.809257
vt 0.597493 0.000000
vt 0.538998 0.000000
vt 0.509751 0.809257
vt 0.509751 0.000000
vt 0.390374 0.000000
vt 0.384317 0.809257
vt 0.616743 0.809257
vt 0.624228 0.000000
vt 0.624228 0.809257
vt 0.652438 0.000000
vt 0.652437 0.809257
vt 0.474056 -0.000000
vt 0.445847 0.809257
vt 0.445847 -0.000000
vt 0.438362 0.809257
vt 0.438362 -0.000000
vt 0.236188 0.809257
vt 0.244106 -0.000000
vt 0.244105 0.809257
vt 0.165376 0.000000
vt 0.157459 0.809257
vt 0.157459 -0.000000
vt 0.306589 0.809257
vt 0.314918 -0.000000
vt 0.314917 0.809257
vt 0.236188 -0.000000
vt 0.227860 0.809257
vt 0.227860 -0.000000
vt 0.663535 0.000000
vt 0.645137 0.809257
vt 0.645137 0.000000
vt 0.306589 -0.000000
vt 0.165376 0.809257
vt 0.681932 0.000000
vt 0.663535 0.809257
vt 0.663535 0.000000
vt 0.712805 0.000000
vt 0.725280 0.809257
vt 0.712804 0.809257
vt 0.737755 0.809257
vt 0.725280 0.000000
vt 0.737755 0.000000
vt 0.930947 0.533677
vt 0.929827 0.502768
vt 0.930947 0.503889
vt 0.924528 0.624255
vt 0.950833 0.613580
vt 0.950848 0.617166
vt 0.968217 0.502768
vt 0.965488 0.468123
vt 0.968217 0.465507
vt 0.962759 0.502768
vt 0.961638 0.503889
vt 0.929827 0.465507
vt 0.932556 0.500152
vt 0.929827 0.502768
vt 0.898220 0.650050
vt 0.921430 0.646728
vt 0.922311 0.650050
vt 0.920661 0.633778
vt 0.943274 0.624254
vt 0.943287 0.627691
vt 0.923191 0.650049
vt 0.945741 0.646727
vt 0.946622 0.650049
vt 0.897352 0.627691
vt 0.920648 0.630342
vt 0.962759 0.534798
vt 0.961638 0.533677
vt 0.965488 0.500152
vt 0.932556 0.468123
vt 0.929827 0.534798
vt 0.856626 0.688799
vt 0.853394 0.718663
vt 0.848813 0.718678
vt 0.898258 0.646727
vt 0.924597 0.643261
vt 0.925516 0.646727
vt 0.897353 0.617166
vt 0.924514 0.620669
vt 0.898258 0.643261
vt 0.925423 0.639795
vt 0.926342 0.643261
vt 0.968814 0.725792
vt 0.966968 0.726125
vt 0.944926 0.701318
vt 0.921038 0.708622
vt 0.895441 0.694526
vt 0.897209 0.690301
vt 0.857603 0.533938
vt 0.857603 0.491720
vt 0.862296 0.532024
vt 0.923817 0.728202
vt 0.922883 0.726125
vt 0.860382 0.488941
vt 0.901471 0.488941
vt 0.862296 0.493634
vt 0.862158 0.737868
vt 0.892052 0.734924
vt 0.893004 0.739404
vt 0.848827 0.722608
vt 0.861206 0.751621
vt 0.856626 0.751637
vt 0.891816 0.693009
vt 0.893152 0.694824
vt 0.885067 0.713189
vt 0.901471 0.536717
vt 0.860382 0.536717
vt 0.899557 0.532024
vt 0.921038 0.690145
vt 0.922883 0.688784
vt 0.904250 0.491720
vt 0.902285 0.490906
vt 0.904250 0.533938
vt 0.902285 0.534752
vt 0.859568 0.534752
vt 0.859568 0.490906
vt 0.852744 0.800572
vt 0.848814 0.800572
vt 0.850810 0.799413
vt 0.895896 0.734107
vt 0.893703 0.733388
vt 0.853407 0.722593
vt 0.854559 0.720593
vt 0.896848 0.738587
vt 0.893584 0.688784
vt 0.852744 0.805152
vt 0.848814 0.805152
vt 0.899557 0.493634
vt 0.293247 0.926460
vt 0.311644 0.929393
vt 0.311644 0.958640
vt 0.305588 0.964697
vt 0.242245 0.964697
vt 0.236188 0.958640
vt 0.254585 0.926460
vt 0.236188 0.929393
vt 0.286492 0.918542
vt 0.261340 0.918542
vt 0.286492 0.856059
vt 0.261340 0.856059
vt 0.311644 0.837466
vt 0.305644 0.844951
vt 0.242188 0.844951
vt 0.236188 0.837466
vt 0.311644 0.809257
vt 0.097127 0.847494
vt 0.078729 0.844561
vt 0.078729 0.815314
vt 0.084786 0.809257
vt 0.148129 0.809257
vt 0.154186 0.815314
vt 0.135789 0.847494
vt 0.154186 0.844561
vt 0.103881 0.855411
vt 0.129034 0.855411
vt 0.103881 0.917895
vt 0.129034 0.917895
vt 0.078729 0.936488
vt 0.084730 0.929003
vt 0.148185 0.929003
vt 0.154186 0.936488
vt 0.078729 0.964697
vt 0.157459 0.837466
vt 0.157459 0.809257
vt 0.232915 0.809257
vt 0.232915 0.837466
vt 0.226915 0.844951
vt 0.214440 0.847731
vt 0.207763 0.918543
vt 0.207763 0.856059
vt 0.163459 0.844951
vt 0.214518 0.926460
vt 0.175934 0.847731
vt 0.232915 0.929393
vt 0.175856 0.926460
vt 0.182611 0.918543
vt 0.226858 0.964697
vt 0.163515 0.964697
vt 0.157459 0.929393
vt 0.075456 0.936487
vt 0.075456 0.964697
vt -0.000000 0.964697
vt 0.000000 0.936487
vt 0.006000 0.929003
vt 0.018475 0.926223
vt 0.025152 0.855411
vt 0.025152 0.917895
vt 0.069456 0.929003
vt 0.018397 0.847494
vt 0.056981 0.926223
vt -0.000000 0.844561
vt 0.057059 0.847494
vt 0.050304 0.855411
vt 0.006057 0.809257
vt 0.069400 0.809257
vt 0.075456 0.844561
vt 0.541287 0.809257
vt 0.568246 0.000000
vt 0.538998 0.000000
vt 0.541287 -0.000000
vt 0.438362 0.809257
vt 0.474057 0.000000
vt 0.078729 0.809257
vt 0.078729 -0.000000
vt 0.645137 0.000000
vt 0.681932 0.000000
vt 0.700329 0.000000
vt 0.750231 0.809257
vt 0.390374 -0.000000
vt 0.626740 0.809257
vt 0.538998 0.809257
vt 0.390374 0.809257
vt 0.616743 0.000000
vt 0.474056 0.809257
vt 0.236188 -0.000000
vt 0.236188 0.809257
vt 0.663535 0.809257
vt 0.681932 0.809257
vt 0.725280 0.000000
vt 0.725280 0.809257
vt 0.897339 0.646728
vt 0.922311 0.646727
vt 0.897339 0.624254
vt 0.861206 0.688784
vt 0.897339 0.643261
vt 0.897339 0.613580
vt 0.897339 0.639795
vt 0.966968 0.688784
vt 0.968814 0.690145
vt 0.919269 0.712847
vt 0.966035 0.728202
vt 0.861206 0.733388
vt 0.861207 0.690413
vt 0.861222 0.688784
vt 0.921038 0.725792
vn 0.0000 -1.0000 0.0000
vn 0.0000 1.0000 0.0000
vn 0.0000 -0.0000 -1.0000
vn 0.0000 0.0000 1.0000
vn -0.7071 0.0000 0.7071
vn -1.0000 0.0000 -0.0000
vn 1.0000 0.0000 0.0000
vn 0.7071 0.0000 0.7071
vn -0.7802 0.0000 0.6255
vn 0.7802 0.0000 0.6255
vn -0.7607 0.0000 -0.6491
vn 0.7607 0.0000 -0.6491
vn -0.1574 0.0000 -0.9875
vn 0.1574 -0.0000 -0.9875
vn -0.2175 0.0000 0.9761
vn 0.2175 0.0000 0.9761
vn 0.7071 -0.0000 -0.7071
vn -0.7071 -0.0000 -0.7071
vn 0.7802 -0.0000 -0.6255
vn -0.7802 -0.0000 -0.6255
vn 0.7607 -0.0000 0.6491
vn -0.7607 0.0000 0.6491
vn 0.1574 0.0000 0.9875
vn -0.1574 0.0000 0.9875
vn 0.2175 0.0000 -0.9761
vn -0.2175 0.0000 -0.9761
vn -0.0000 0.8726 0.4884
vn 0.4974 0.8675 0.0000
vn -0.4974 0.8675 -0.0000
vn 0.0000 0.8726 -0.4884
vn 0.6077 0.5112 -0.6077
vn 0.6077 0.5112 0.6077
vn -0.6077 0.5112 0.6077
vn -0.6077 0.5112 -0.6077
usemtl Post
s off
f 13/1/1 16/2/1 6/3/1
f 33/4/1 36/5/1 26/6/1
f 58/7/2 59/8/2 41/9/2
f 78/10/2 79/11/2 61/12/2
f 2/13/3 41/14/3 1/15/3
f 6/16/4 43/17/4 3/18/4
f 3/18/5 44/19/5 4/20/5
f 4/21/6 45/22/6 5/23/6
f 7/24/7 48/25/7 8/26/7
f 8/27/8 46/28/8 6/16/8
f 9/29/9 50/30/9 10/31/9
f 10/31/6 42/32/6 2/33/6
f 1/34/7 51/35/7 11/36/7
f 11/36/10 52/37/10 12/38/10
f 13/39/11 54/40/11 14/41/11
f 16/42/12 55/43/12 56/44/12
f 17/45/9 58/46/9 18/47/9
f 19/48/10 60/49/10 20/50/10
f 13/51/13 45/52/13 53/53/13
f 14/41/6 57/54/6 17/45/6
f 20/50/7 55/43/7 15/55/7
f 16/56/14 47/57/14 7/58/14
f 18/59/15 49/60/15 9/61/15
f 12/62/16 59/63/16 19/64/16
f 22/65/4 61/66/4 21/67/4
f 26/68/3 63/69/3 23/70/3
f 23/70/17 64/71/17 24/72/17
f 24/73/7 65/74/7 25/75/7
f 27/76/6 68/77/6 28/78/6
f 28/79/18 66/80/18 26/68/18
f 29/81/19 70/82/19 30/83/19
f 30/83/7 62/84/7 22/85/7
f 21/86/6 71/87/6 31/88/6
f 31/88/20 72/89/20 32/90/20
f 33/91/21 74/92/21 34/93/21
f 35/94/22 76/95/22 36/96/22
f 37/97/19 78/98/19 38/99/19
f 39/100/20 80/101/20 40/102/20
f 25/103/23 73/104/23 33/105/23
f 34/93/7 77/106/7 37/97/7
f 40/102/6 75/107/6 35/94/6
f 36/108/24 67/109/24 27/110/24
f 29/111/25 78/112/25 69/113/25
f 39/114/26 72/115/26 79/116/26
f 84/117/1 89/118/1 81/119/1
f 88/120/3 97/121/3 85/122/3
f 87/123/1 94/124/1 86/125/1
f 81/119/1 90/126/1 82/127/1
f 85/128/1 96/129/1 88/130/1
f 89/131/7 94/132/7 90/133/7
f 92/134/3 93/135/3 89/136/3
f 90/137/4 95/138/4 91/139/4
f 91/140/6 96/141/6 92/134/6
f 82/127/1 91/142/1 83/143/1
f 87/123/1 96/129/1 95/144/1
f 85/128/1 94/124/1 93/145/1
f 83/143/1 92/146/1 84/117/1
f 109/147/6 124/148/6 111/149/6
f 86/150/4 99/151/4 87/152/4
f 87/153/6 100/154/6 88/120/6
f 85/155/7 98/156/7 86/157/7
f 117/158/27 119/159/27 101/160/27
f 106/161/4 121/162/4 108/163/4
f 109/164/1 111/165/1 99/166/1
f 114/167/28 116/168/28 101/160/28
f 112/169/1 102/170/1 100/171/1
f 103/172/7 118/173/7 105/174/7
f 112/175/3 115/176/3 102/177/3
f 120/178/29 122/179/29 101/180/29
f 106/181/1 108/182/1 98/183/1
f 123/184/30 125/185/30 101/160/30
f 102/170/1 103/186/1 104/187/1
f 105/188/1 106/181/1 107/189/1
f 108/182/1 109/164/1 110/190/1
f 111/165/1 112/169/1 113/191/1
f 114/192/31 115/193/31 116/194/31
f 117/195/32 118/173/32 119/196/32
f 120/178/33 121/162/33 122/179/33
f 123/197/34 124/148/34 125/198/34
f 118/173/8 106/199/8 105/174/8
f 109/200/5 121/162/5 120/178/5
f 112/175/18 124/148/18 123/197/18
f 115/193/17 103/201/17 102/202/17
f 103/186/1 105/188/1 97/203/1
f 18/204/1 9/205/1 10/206/1
f 10/206/1 2/207/1 18/204/1
f 2/207/1 1/208/1 18/204/1
f 1/208/1 11/209/1 19/210/1
f 11/209/1 12/211/1 19/210/1
f 17/212/1 18/204/1 19/210/1
f 18/204/1 1/208/1 19/210/1
f 19/210/1 20/213/1 17/212/1
f 14/214/1 17/212/1 20/213/1
f 14/214/1 20/213/1 15/215/1
f 4/216/1 5/217/1 13/1/1
f 13/1/1 14/214/1 15/215/1
f 16/2/1 7/218/1 8/219/1
f 13/1/1 15/215/1 16/2/1
f 3/220/1 4/216/1 13/1/1
f 8/219/1 6/3/1 16/2/1
f 6/3/1 3/220/1 13/1/1
f 38/221/1 29/222/1 30/223/1
f 30/223/1 22/224/1 38/221/1
f 22/224/1 21/225/1 38/221/1
f 21/225/1 31/226/1 39/227/1
f 31/226/1 32/228/1 39/227/1
f 37/229/1 38/221/1 39/227/1
f 38/221/1 21/225/1 39/227/1
f 39/227/1 40/230/1 37/229/1
f 34/231/1 37/229/1 35/232/1
f 37/229/1 40/230/1 35/232/1
f 24/233/1 25/234/1 33/4/1
f 33/4/1 34/231/1 35/232/1
f 36/5/1 27/235/1 28/236/1
f 33/4/1 35/232/1 36/5/1
f 23/237/1 24/233/1 33/4/1
f 28/236/1 26/6/1 36/5/1
f 26/6/1 23/237/1 33/4/1
f 53/238/2 45/239/2 44/240/2
f 44/240/2 43/241/2 53/238/2
f 43/241/2 46/242/2 53/238/2
f 46/242/2 48/243/2 56/244/2
f 48/243/2 47/245/2 56/244/2
f 54/246/2 53/238/2 56/244/2
f 53/238/2 46/242/2 56/244/2
f 56/244/2 55/247/2 54/246/2
f 57/248/2 54/246/2 55/247/2
f 57/248/2 55/247/2 60/249/2
f 50/250/2 49/251/2 58/7/2
f 58/7/2 57/248/2 60/249/2
f 59/8/2 52/252/2 51/253/2
f 58/7/2 60/249/2 59/8/2
f 42/254/2 50/250/2 58/7/2
f 51/253/2 41/9/2 59/8/2
f 41/9/2 42/254/2 58/7/2
f 73/255/2 65/256/2 64/257/2
f 64/257/2 63/258/2 73/255/2
f 63/258/2 66/259/2 73/255/2
f 66/259/2 68/260/2 76/261/2
f 68/260/2 67/262/2 76/261/2
f 74/263/2 73/255/2 76/261/2
f 73/255/2 66/259/2 76/261/2
f 76/261/2 75/264/2 74/263/2
f 77/265/2 74/263/2 75/264/2
f 77/265/2 75/264/2 80/266/2
f 70/267/2 69/268/2 78/10/2
f 78/10/2 77/265/2 80/266/2
f 79/11/2 72/269/2 71/270/2
f 78/10/2 80/266/2 79/11/2
f 62/271/2 70/267/2 78/10/2
f 71/270/2 61/12/2 79/11/2
f 61/12/2 62/271/2 78/10/2
f 2/13/3 42/272/3 41/14/3
f 6/16/4 46/28/4 43/17/4
f 3/18/5 43/17/5 44/19/5
f 4/21/6 44/273/6 45/22/6
f 7/24/7 47/274/7 48/25/7
f 8/27/8 48/275/8 46/28/8
f 9/29/9 49/276/9 50/30/9
f 10/31/6 50/30/6 42/32/6
f 1/34/7 41/277/7 51/35/7
f 11/36/10 51/35/10 52/37/10
f 13/39/11 53/278/11 54/40/11
f 16/42/12 15/55/12 55/43/12
f 17/45/9 57/54/9 58/46/9
f 19/48/10 59/279/10 60/49/10
f 13/51/13 5/280/13 45/52/13
f 14/41/6 54/40/6 57/54/6
f 20/50/7 60/49/7 55/43/7
f 16/56/14 56/281/14 47/57/14
f 18/59/15 58/282/15 49/60/15
f 12/62/16 52/283/16 59/63/16
f 22/65/4 62/284/4 61/66/4
f 26/68/3 66/80/3 63/69/3
f 23/70/17 63/69/17 64/71/17
f 24/73/7 64/285/7 65/74/7
f 27/76/6 67/286/6 68/77/6
f 28/79/18 68/287/18 66/80/18
f 29/81/19 69/288/19 70/82/19
f 30/83/7 70/82/7 62/84/7
f 21/86/6 61/289/6 71/87/6
f 31/88/20 71/87/20 72/89/20
f 33/91/21 73/290/21 74/92/21
f 35/94/22 75/107/22 76/95/22
f 37/97/19 77/106/19 78/98/19
f 39/100/20 79/291/20 80/101/20
f 25/103/23 65/292/23 73/104/23
f 34/93/7 74/92/7 77/106/7
f 40/102/6 80/101/6 75/107/6
f 36/108/24 76/293/24 67/109/24
f 29/111/25 38/294/25 78/112/25
f 39/114/26 32/295/26 72/115/26
f 84/117/1 92/146/1 89/118/1
f 88/120/3 100/154/3 97/121/3
f 87/123/1 95/144/1 94/124/1
f 81/119/1 89/118/1 90/126/1
f 85/128/1 93/145/1 96/129/1
f 89/131/7 93/296/7 94/132/7
f 92/134/3 96/141/3 93/135/3
f 90/137/4 94/297/4 95/138/4
f 91/140/6 95/298/6 96/141/6
f 82/127/1 90/126/1 91/142/1
f 87/123/1 88/130/1 96/129/1
f 85/128/1 86/125/1 94/124/1
f 83/143/1 91/142/1 92/146/1
f 109/147/6 120/299/6 124/148/6
f 86/150/4 98/300/4 99/151/4
f 87/153/6 99/301/6 100/154/6
f 85/155/7 97/302/7 98/156/7
f 101/160/27 122/303/27 121/304/27
f 121/304/27 117/158/27 101/160/27
f 106/161/4 117/305/4 121/162/4
f 113/191/1 100/171/1 111/165/1
f 100/171/1 99/166/1 111/165/1
f 99/166/1 110/190/1 109/164/1
f 101/160/28 119/159/28 118/306/28
f 118/306/28 114/167/28 101/160/28
f 104/187/1 97/203/1 102/170/1
f 97/203/1 100/171/1 102/170/1
f 100/171/1 113/191/1 112/169/1
f 103/172/7 114/307/7 118/173/7
f 112/175/3 123/197/3 115/176/3
f 101/180/29 125/308/29 124/309/29
f 124/309/29 120/178/29 101/180/29
f 110/190/1 99/166/1 108/182/1
f 99/166/1 98/183/1 108/182/1
f 98/183/1 107/189/1 106/181/1
f 101/160/30 116/168/30 115/310/30
f 115/310/30 123/184/30 101/160/30
f 118/173/8 117/195/8 106/199/8
f 109/200/5 108/163/5 121/162/5
f 112/175/18 111/149/18 124/148/18
f 115/193/17 114/192/17 103/201/17
f 107/189/1 98/183/1 105/188/1
f 98/183/1 97/203/1 105/188/1
f 97/203/1 104/187/1 103/186/1
