# Blender v3.6.0 OBJ File: 'LMS Standard Twin Semaphore Minecraft.blend'
# www.blender.org
mtllib LMS_Semaphore_post_mid.mtl
o Wooden_Post_Cube.005
v 0.416840 0.000701 0.585680
v 0.416840 -0.000234 0.414320
v 0.583160 -0.000234 0.414320
v 0.583160 -0.000234 0.585680
v 0.583160 1.000700 0.414320
v 0.583160 1.000700 0.585680
v 0.416840 1.001503 0.585680
v 0.416840 1.000700 0.414320
vt 0.250000 0.750000
vt 0.250000 0.000000
vt 0.375000 0.000000
vt 0.375000 0.000000
vt 0.500000 0.000000
vt 0.500000 0.750000
vt 0.000000 0.750000
vt 0.000000 0.000000
vt 0.125000 0.000000
vt 0.125000 0.750000
vt 0.125000 0.000000
vt 0.625000 0.875000
vt 0.625000 1.000000
vt 0.500000 1.000000
vt 0.375000 0.750000
vt 0.375000 0.750000
vt 0.125000 0.750000
vt 0.500000 0.875000
vn 0.0000 0.0000 -1.0000
vn 0.0000 0.0000 1.0000
vn -1.0000 0.0000 -0.0000
vn 1.0000 0.0000 0.0000
vn 0.0048 1.0000 -0.0047
vn 0.0000 1.0000 0.0000
usemtl Post
s off
f 5/1/1 3/2/1 2/3/1
f 1/4/2 4/5/2 6/6/2
f 8/7/3 2/8/3 1/9/3
f 6/10/4 4/11/4 3/2/4
f 8/12/5 7/13/5 6/14/5
f 5/1/1 2/3/1 8/15/1
f 1/4/2 6/6/2 7/16/2
f 8/7/3 1/9/3 7/17/3
f 6/10/4 3/2/4 5/1/4
f 8/12/6 6/14/6 5/18/6
