# Blender v3.6.0 OBJ File: 'LMS Standard Semaphore Minecraft.blend'
# www.blender.org
mtllib LMS_Post_tube_mid.mtl
o Tubular_Steel_Cylinder
v 0.500000 0.000000 0.400000
v 0.500000 1.000000 0.400000
v 0.538268 0.000000 0.407612
v 0.538268 1.000000 0.407612
v 0.570711 0.000000 0.429289
v 0.570711 1.000000 0.429289
v 0.592388 0.000000 0.461732
v 0.592388 1.000000 0.461732
v 0.600000 0.000000 0.500000
v 0.600000 1.000000 0.500000
v 0.592388 0.000000 0.538268
v 0.592388 1.000000 0.538268
v 0.570711 0.000000 0.570711
v 0.570711 1.000000 0.570711
v 0.538268 0.000000 0.592388
v 0.538268 1.000000 0.592388
v 0.500000 0.000000 0.600000
v 0.500000 1.000000 0.600000
v 0.461732 0.000000 0.592388
v 0.461732 1.000000 0.592388
v 0.429289 0.000000 0.570711
v 0.429289 1.000000 0.570711
v 0.407612 0.000000 0.538268
v 0.407612 1.000000 0.538268
v 0.400000 0.000000 0.500000
v 0.400000 1.000000 0.500000
v 0.407612 0.000000 0.461732
v 0.407612 1.000000 0.461732
v 0.429289 0.000000 0.429289
v 0.429289 1.000000 0.429289
v 0.461732 0.000000 0.407612
v 0.461732 1.000000 0.407612
vt 0.156072 1.000000
vt 0.117054 0.000000
vt 0.156072 0.000000
vt 0.117054 1.000000
vt 0.078036 0.000000
vt 0.078036 1.000000
vt 0.039018 0.000000
vt 0.039018 1.000000
vt -0.000000 0.000000
vt 0.624289 1.000000
vt 0.585271 -0.000000
vt 0.624289 -0.000000
vt 0.585271 1.000000
vt 0.546253 -0.000000
vt 0.546253 1.000000
vt 0.507235 0.000000
vt 0.507235 1.000000
vt 0.468217 0.000000
vt 0.468217 1.000000
vt 0.429199 0.000000
vt 0.429199 1.000000
vt 0.390181 0.000000
vt 0.390181 1.000000
vt 0.351163 0.000000
vt 0.351163 1.000000
vt 0.312145 0.000000
vt 0.312145 1.000000
vt 0.273127 0.000000
vt 0.273127 1.000000
vt 0.234108 0.000000
vt 0.805515 0.153636
vt 0.666811 0.181226
vt 0.639221 0.042521
vt 0.234108 1.000000
vt 0.195090 0.000000
vt 0.195090 1.000000
vt 0.892424 0.110469
vt 0.813855 0.228057
vt 0.696267 0.149487
vt -0.000000 1.000000
vt 0.666811 0.014932
vt 0.702859 -0.000000
vt 0.741877 -0.000000
vt 0.777925 0.014932
vt 0.805515 0.042521
vt 0.820446 0.078570
vt 0.820446 0.117588
vt 0.777925 0.181226
vt 0.741877 0.196157
vt 0.702859 0.196157
vt 0.639221 0.153636
vt 0.624289 0.117588
vt 0.624289 0.078570
vt 0.696267 0.110469
vt 0.711199 0.074421
vt 0.738789 0.046831
vt 0.774837 0.031900
vt 0.813855 0.031900
vt 0.849903 0.046831
vt 0.877493 0.074421
vt 0.892424 0.149487
vt 0.877492 0.185535
vt 0.849903 0.213125
vt 0.774836 0.228057
vt 0.738788 0.213125
vt 0.711199 0.185535
vn 0.1951 0.0000 -0.9808
vn 0.5556 0.0000 -0.8315
vn 0.8315 0.0000 -0.5556
vn 0.9808 0.0000 -0.1951
vn 0.9808 0.0000 0.1951
vn 0.8315 0.0000 0.5556
vn 0.5556 0.0000 0.8315
vn 0.1951 0.0000 0.9808
vn -0.1951 0.0000 0.9808
vn -0.5556 0.0000 0.8315
vn -0.8315 0.0000 0.5556
vn -0.9808 0.0000 0.1951
vn -0.9808 0.0000 -0.1951
vn -0.8315 0.0000 -0.5556
vn 0.0000 1.0000 0.0000
vn -0.5556 0.0000 -0.8315
vn -0.1951 0.0000 -0.9808
vn 0.0000 -1.0000 0.0000
usemtl Post
s off
f 2/1/1 3/2/1 1/3/1
f 4/4/2 5/5/2 3/2/2
f 6/6/3 7/7/3 5/5/3
f 8/8/4 9/9/4 7/7/4
f 10/10/5 11/11/5 9/12/5
f 12/13/6 13/14/6 11/11/6
f 14/15/7 15/16/7 13/14/7
f 16/17/8 17/18/8 15/16/8
f 18/19/9 19/20/9 17/18/9
f 20/21/10 21/22/10 19/20/10
f 22/23/11 23/24/11 21/22/11
f 24/25/12 25/26/12 23/24/12
f 26/27/13 27/28/13 25/26/13
f 28/29/14 29/30/14 27/28/14
f 22/31/15 14/32/15 6/33/15
f 30/34/16 31/35/16 29/30/16
f 32/36/17 1/3/17 31/35/17
f 15/37/18 23/38/18 31/39/18
f 2/1/1 4/4/1 3/2/1
f 4/4/2 6/6/2 5/5/2
f 6/6/3 8/8/3 7/7/3
f 8/8/4 10/40/4 9/9/4
f 10/10/5 12/13/5 11/11/5
f 12/13/6 14/15/6 13/14/6
f 14/15/7 16/17/7 15/16/7
f 16/17/8 18/19/8 17/18/8
f 18/19/9 20/21/9 19/20/9
f 20/21/10 22/23/10 21/22/10
f 22/23/11 24/25/11 23/24/11
f 24/25/12 26/27/12 25/26/12
f 26/27/13 28/29/13 27/28/13
f 28/29/14 30/34/14 29/30/14
f 6/33/15 4/41/15 2/42/15
f 2/42/15 32/43/15 30/44/15
f 30/44/15 28/45/15 26/46/15
f 26/46/15 24/47/15 22/31/15
f 22/31/15 20/48/15 18/49/15
f 18/49/15 16/50/15 14/32/15
f 14/32/15 12/51/15 10/52/15
f 10/52/15 8/53/15 6/33/15
f 6/33/15 2/42/15 30/44/15
f 30/44/15 26/46/15 22/31/15
f 22/31/15 18/49/15 14/32/15
f 14/32/15 10/52/15 6/33/15
f 6/33/15 30/44/15 22/31/15
f 30/34/16 32/36/16 31/35/16
f 32/36/17 2/1/17 1/3/17
f 31/39/18 1/54/18 3/55/18
f 3/55/18 5/56/18 7/57/18
f 7/57/18 9/58/18 11/59/18
f 11/59/18 13/60/18 15/37/18
f 15/37/18 17/61/18 19/62/18
f 19/62/18 21/63/18 23/38/18
f 23/38/18 25/64/18 27/65/18
f 27/65/18 29/66/18 31/39/18
f 31/39/18 3/55/18 7/57/18
f 7/57/18 11/59/18 15/37/18
f 15/37/18 19/62/18 23/38/18
f 23/38/18 27/65/18 31/39/18
f 31/39/18 7/57/18 15/37/18
