# Blender v3.6.0 OBJ File: 'LMS Standard Semaphore Minecraft.blend'
# www.blender.org
mtllib LMS_Post_wooden_backplate_mid.mtl
o backplate_mid_post_Cube.028
v 0.578160 0.000701 0.414320
v 0.578160 -0.000234 0.585680
v 0.411840 -0.000234 0.585680
v 0.411840 -0.000234 0.414320
v 0.411840 1.000700 0.585680
v 0.411840 1.000700 0.414320
v 0.578160 1.001503 0.414320
v 0.578160 1.000700 0.585680
v 0.575000 0.785195 0.430000
v 0.575000 0.735195 0.430000
v 0.625000 0.785195 0.430000
v 0.625000 0.735195 0.430000
v 0.640000 1.015195 0.430000
v 0.690000 1.011196 0.430000
v 0.640000 0.735195 0.430000
v 0.665025 0.741888 0.430000
v 0.683308 0.760170 0.430000
v 0.640000 0.805146 0.430000
v 0.689950 0.785195 0.430000
v 0.654227 0.791279 0.430000
v 0.644186 0.781607 0.430000
v 0.654630 0.770566 0.430000
v 0.635447 0.770955 0.430000
v 0.635545 0.790970 0.430000
v 0.705000 1.025195 0.430000
v 0.645000 1.035195 0.430000
v 0.655000 1.055195 0.430000
v 0.685000 1.075195 0.430000
v 1.595000 1.225195 0.430000
v 1.585000 1.275195 0.430000
v 0.585000 0.785195 0.440000
v 0.585000 0.735195 0.440000
v 0.625000 0.785195 0.440000
v 0.625000 0.735195 0.440000
v 0.690000 1.011196 0.440000
v 0.640000 1.015195 0.440000
v 0.640050 0.735195 0.440000
v 0.690000 0.785145 0.440000
v 0.683308 0.760170 0.440000
v 0.665025 0.741888 0.440000
v 0.635545 0.790970 0.440000
v 0.640000 0.805146 0.440000
v 0.654227 0.791279 0.440000
v 0.644186 0.781607 0.440000
v 0.654630 0.770566 0.440000
v 0.635447 0.770955 0.440000
v 0.705000 1.025195 0.440000
v 0.645000 1.035195 0.440000
v 0.655000 1.055195 0.440000
v 0.685000 1.075195 0.440000
v 1.595000 1.225195 0.440000
v 1.585000 1.275195 0.440000
v 0.585000 0.040195 0.430000
v 0.585000 -0.009805 0.430000
v 0.585000 0.040195 0.440000
v 0.585000 -0.009805 0.440000
v 1.805000 0.040195 0.430000
v 1.805000 -0.009805 0.430000
v 1.805000 0.040195 0.440000
v 1.805000 -0.009805 0.440000
v 1.174000 -0.024805 0.420000
v 0.895000 -0.024805 0.420000
v 1.174000 1.085195 0.420000
v 1.434400 0.925195 0.420000
v 0.948275 1.273306 0.420000
v 1.805885 0.907722 0.420000
v 1.750411 1.108421 0.420000
v 1.664009 1.267697 0.420000
v 1.555136 1.369957 0.420000
v 1.434450 1.405195 0.420000
v 0.557630 0.760195 0.393998
v 0.535000 0.782825 0.393998
v 0.557630 0.760195 0.426002
v 0.535000 0.782825 0.426002
v 0.535000 0.737566 0.393998
v 0.512370 0.760195 0.393998
v 0.535000 0.737566 0.426002
v 0.512370 0.760195 0.426002
v 0.557630 0.015195 0.393998
v 0.535000 0.037825 0.393998
v 0.557630 0.015195 0.426002
v 0.535000 0.037825 0.426002
v 0.535000 -0.007435 0.393998
v 0.512370 0.015195 0.393998
v 0.535000 -0.007435 0.426002
v 0.512370 0.015195 0.426002
v 1.825000 -0.024805 0.430000
v 0.895000 -0.024805 0.430000
v 1.174000 -0.024805 0.430000
v 1.174000 1.405195 0.430000
v 1.825000 0.685195 0.430000
v 1.174000 1.085195 0.430000
v 0.895000 1.085245 0.430000
v 0.908653 1.184115 0.430000
v 0.948275 1.273306 0.430000
v 1.009987 1.344090 0.430000
v 1.087750 1.389535 0.430000
v 1.434400 -0.024805 0.430000
v 1.434400 0.925195 0.430000
v 1.434450 1.405195 0.430000
v 1.555136 1.369957 0.430000
v 1.664009 1.267697 0.430000
v 1.750411 1.108421 0.430000
v 1.805885 0.907722 0.430000
v 0.895000 1.085195 0.420000
v 1.434400 -0.024805 0.420000
v 1.174000 1.405195 0.420000
v 1.825000 -0.024805 0.420000
v 1.825000 0.685195 0.420000
v 1.087750 1.389535 0.420000
v 1.009987 1.344090 0.420000
v 0.908653 1.184115 0.420000
vt 0.375000 0.000000
vt 0.250000 0.750000
vt 0.250000 0.000000
vt 0.375000 0.000000
vt 0.500000 0.750000
vt 0.375000 0.750000
vt 0.125000 0.000000
vt 0.000000 0.750000
vt 0.000000 0.000000
vt 0.125000 0.750000
vt 0.125000 0.000000
vt 0.625000 0.875000
vt 0.500000 1.000000
vt 0.500000 0.875000
vt 0.901355 0.653630
vt 0.896934 0.652233
vt 0.898446 0.655142
vt 0.898699 0.650544
vt 0.896480 0.651360
vt 0.897879 0.646942
vt 0.899313 0.648836
vt 0.900550 0.649245
vt 0.899860 0.649933
vt 0.898096 0.649439
vt 0.899843 0.650721
vt 0.899054 0.649713
vt 0.899325 0.580046
vt 0.896113 0.580976
vt 0.911389 0.638809
vt 0.932871 0.652233
vt 0.928752 0.653048
vt 0.931662 0.654560
vt 0.931107 0.650544
vt 0.929962 0.650721
vt 0.929255 0.649245
vt 0.931930 0.646940
vt 0.918778 0.640105
vt 0.929945 0.649933
vt 0.930492 0.648836
vt 0.931709 0.649439
vt 0.933326 0.651357
vt 0.930751 0.649713
vt 0.918417 0.638809
vt 0.915159 0.640811
vt 0.935741 0.580046
vt 0.936395 0.583314
vt 0.936396 0.580046
vt 0.935740 0.597274
vt 0.935084 0.596305
vt 0.935084 0.597274
vt 0.935744 0.616724
vt 0.935089 0.617704
vt 0.935745 0.617703
vt 0.934427 0.639399
vt 0.935084 0.640465
vt 0.935083 0.639398
vt 0.935084 0.597274
vt 0.935740 0.612092
vt 0.935740 0.597274
vt 0.935740 0.582813
vt 0.935084 0.581462
vt 0.935084 0.582813
vt 0.928450 0.653630
vt 0.931359 0.655142
vt 0.935740 0.581462
vt 0.935084 0.580046
vt 0.935740 0.621715
vt 0.935084 0.620967
vt 0.935084 0.621715
vt 0.934348 0.642624
vt 0.933692 0.640454
vt 0.933692 0.642624
vt 0.935084 0.612096
vt 0.935740 0.613740
vt 0.935093 0.620315
vt 0.935749 0.620967
vt 0.934348 0.580047
vt 0.935004 0.580046
vt 0.935084 0.613741
vt 0.935741 0.615049
vt 0.935740 0.624296
vt 0.935084 0.624941
vt 0.934348 0.640454
vt 0.933692 0.580046
vt 0.935088 0.616722
vt 0.935740 0.596305
vt 0.935084 0.628219
vt 0.935740 0.624941
vt 0.935740 0.628219
vt 0.935740 0.583314
vt 0.936395 0.586525
vt 0.935740 0.586525
vt 0.891415 0.580046
vt 0.888136 0.660046
vt 0.888136 0.580046
vt 0.894802 0.659675
vt 0.895349 0.580046
vt 0.895457 0.659674
vt 0.891415 0.660046
vt 0.894693 0.580046
vt 0.894693 0.660046
vt 0.895457 0.658767
vt 0.896113 0.580046
vt 0.896113 0.658767
vt 0.906266 0.892173
vt 0.891505 0.950903
vt 0.906266 0.950903
vt 0.877727 0.950903
vt 0.857060 0.913337
vt 0.857060 0.950903
vt 0.896068 0.876070
vt 0.891505 0.875242
vt 0.891505 0.892173
vt 0.877727 0.900638
vt 0.877724 0.875242
vt 0.865578 0.882517
vt 0.861007 0.890944
vt 0.929156 0.704998
vt 0.907950 0.726203
vt 0.907950 0.704998
vt 0.929156 0.726203
vt 0.907950 0.747409
vt 0.929156 0.747409
vt 0.907950 0.768614
vt 0.929156 0.789820
vt 0.907950 0.789820
vt 0.886744 0.768614
vt 0.886744 0.747409
vt 0.950361 0.747409
vt 0.929156 0.768614
vt 0.929156 0.704998
vt 0.907950 0.726203
vt 0.907950 0.704998
vt 0.929156 0.726203
vt 0.907950 0.747409
vt 0.929156 0.747409
vt 0.907950 0.768614
vt 0.929156 0.789820
vt 0.907950 0.789820
vt 0.886744 0.768614
vt 0.886744 0.747409
vt 0.950361 0.747409
vt 0.929156 0.768614
vt 0.906266 0.950903
vt 0.921028 0.892173
vt 0.906266 0.892170
vt 0.934806 0.950903
vt 0.955472 0.913337
vt 0.934806 0.900638
vt 0.909085 0.882220
vt 0.906989 0.886939
vt 0.921028 0.950903
vt 0.934808 0.875242
vt 0.921028 0.875242
vt 0.951526 0.890944
vt 0.946954 0.882517
vt 0.956002 0.881746
vt 0.955472 0.875242
vt 0.955472 0.881746
vt 0.956531 0.890004
vt 0.957060 0.903781
vt 0.957060 0.890004
vt 0.956531 0.924448
vt 0.957060 0.930602
vt 0.957060 0.924448
vt 0.956531 0.930602
vt 0.957060 0.944305
vt 0.956531 0.944305
vt 0.957060 0.948931
vt 0.956531 0.948931
vt 0.957060 0.953275
vt 0.956002 0.950389
vt 0.955472 0.913669
vt 0.955472 0.950389
vt 0.956002 0.875242
vt 0.956531 0.879523
vt 0.956531 0.875242
vt 0.956002 0.913669
vt 0.955472 0.901947
vt 0.956002 0.879523
vt 0.956531 0.884547
vt 0.956002 0.901947
vt 0.955472 0.890948
vt 0.956531 0.875242
vt 0.957060 0.875242
vt 0.956002 0.884547
vt 0.956531 0.889822
vt 0.956002 0.890948
vt 0.956002 0.889824
vt 0.956531 0.947555
vt 0.956531 0.903781
vt 0.957060 0.924448
vt 0.896624 0.648085
vt 0.896113 0.649701
vt 0.933181 0.648085
vt 0.375000 0.750000
vt 0.500000 0.000000
vt 0.125000 0.750000
vt 0.625000 1.000000
vt 0.912772 0.642893
vt 0.911028 0.640105
vt 0.914646 0.640811
vt 0.913785 0.641997
vt 0.914903 0.638460
vt 0.917033 0.642893
vt 0.933692 0.580976
vt 0.930481 0.580046
vt 0.914903 0.638460
vt 0.916020 0.641997
vt 0.935740 0.583314
vt 0.934428 0.640466
vt 0.935740 0.580046
vt 0.935740 0.620967
vt 0.935086 0.615050
vt 0.934348 0.580046
vt 0.935084 0.624941
vt 0.936395 0.583314
vt 0.891415 0.660046
vt 0.894693 0.580047
vt 0.891415 0.580046
vt 0.895457 0.580046
vt 0.905544 0.886939
vt 0.903448 0.882220
vt 0.900182 0.878475
vt 0.858072 0.901563
vt 0.871339 0.877106
vt 0.950361 0.768614
vt 0.950361 0.768614
vt 0.955472 0.950903
vt 0.916465 0.876070
vt 0.912350 0.878475
vt 0.941194 0.877106
vt 0.954461 0.901563
vt 0.956002 0.875242
vt 0.956531 0.953275
vt 0.956002 0.947555
vt 0.956531 0.924448
vt 0.933692 0.649701
vn 0.0000 0.0000 1.0000
vn 0.0000 0.0000 -1.0000
vn 1.0000 0.0000 0.0000
vn -1.0000 0.0000 -0.0000
vn 0.0000 1.0000 0.0000
vn 0.9806 0.1961 0.0000
vn -0.9540 0.2998 0.0000
vn 0.0000 -1.0000 0.0000
vn 0.6823 -0.7311 0.0000
vn 1.0000 -0.0002 0.0000
vn -0.9701 0.2425 0.0000
vn -0.7071 0.0000 0.7071
vn -0.8944 0.4472 0.0000
vn -0.4804 0.8771 0.0000
vn -0.5547 0.8321 0.0000
vn 0.9665 -0.2565 -0.0061
vn 0.2193 -0.9757 0.0000
vn 0.7071 -0.7071 0.0000
vn -0.2169 0.9762 0.0000
vn 0.2584 -0.9660 -0.0013
vn 0.7071 0.7071 0.0000
vn -0.7071 -0.7071 0.0000
vn -0.7071 0.7071 0.0000
vn 0.6846 0.7289 0.0000
vn 0.2803 0.9599 0.0000
vn -0.1786 0.9839 0.0000
vn -0.5046 0.8634 0.0000
vn -0.7538 0.6572 0.0000
vn 0.9963 0.0856 0.0000
vn -0.9139 0.4060 0.0000
vn 0.9639 0.2664 0.0000
vn -0.9906 0.1368 0.0000
vn 0.8790 0.4768 0.0000
vn -0.0048 1.0000 0.0047
vn 1.0000 0.0000 -0.0050
vn 0.9659 -0.2588 0.0000
vn 0.2588 -0.9659 0.0000
vn -0.9906 0.1367 -0.0007
usemtl Post
s off
f 2/1/1 5/2/1 3/3/1
f 1/4/2 6/5/2 7/6/2
f 1/7/3 8/8/3 2/9/3
f 3/3/4 6/10/4 4/11/4
f 8/12/5 6/13/5 5/14/5
f 9/15/2 12/16/2 10/17/2
f 12/16/2 23/18/2 15/19/2
f 19/20/2 20/21/2 18/22/2
f 20/21/2 24/23/2 18/22/2
f 22/24/2 20/21/2 19/20/2
f 23/18/2 22/24/2 15/19/2
f 11/25/2 21/26/2 23/18/2
f 30/27/2 29/28/2 25/29/2
f 34/30/1 31/31/1 32/32/1
f 34/30/1 46/33/1 33/34/1
f 42/35/1 38/36/1 35/37/1
f 41/38/1 43/39/1 42/35/1
f 43/39/1 45/40/1 38/36/1
f 45/40/1 46/33/1 37/41/1
f 33/34/1 44/42/1 41/38/1
f 35/37/1 47/43/1 49/44/1
f 52/45/6 29/46/6 30/47/6
f 41/48/7 18/49/7 24/50/7
f 15/51/8 34/52/8 12/53/8
f 47/54/9 14/55/9 25/56/9
f 35/57/10 19/58/10 14/59/10
f 36/60/11 26/61/11 13/62/11
f 32/32/12 9/63/12 10/64/12
f 48/65/13 27/66/13 26/61/13
f 33/67/14 24/68/14 11/69/14
f 49/70/15 28/71/15 27/72/15
f 38/73/16 17/74/16 19/58/16
f 12/53/8 32/75/8 10/76/8
f 51/77/17 25/56/17 29/78/17
f 39/79/18 16/80/18 17/74/18
f 31/81/5 11/69/5 9/82/5
f 50/83/19 30/84/19 28/71/19
f 16/80/20 37/85/20 15/51/20
f 42/86/4 13/62/4 18/49/4
f 56/87/4 53/88/4 54/89/4
f 57/90/3 60/91/3 58/92/3
f 56/93/1 59/94/1 55/95/1
f 55/96/5 57/97/5 53/98/5
f 53/99/2 58/100/2 54/101/2
f 54/102/8 60/103/8 56/104/8
f 105/105/2 61/106/2 62/107/2
f 106/108/2 109/109/2 108/110/2
f 110/111/2 107/112/2 63/113/2
f 61/106/2 64/114/2 106/108/2
f 63/113/2 70/115/2 64/114/2
f 68/116/2 67/117/2 64/114/2
f 72/118/21 73/119/21 71/120/21
f 74/121/1 77/122/1 73/119/1
f 78/123/22 75/124/22 77/122/22
f 75/124/2 72/125/2 71/126/2
f 77/122/18 71/127/18 73/128/18
f 74/129/23 76/130/23 78/123/23
f 80/131/21 81/132/21 79/133/21
f 82/134/1 85/135/1 81/132/1
f 86/136/22 83/137/22 85/135/22
f 83/137/2 80/138/2 79/139/2
f 85/135/18 79/140/18 81/141/18
f 82/142/23 84/143/23 86/136/23
f 88/144/1 92/145/1 93/146/1
f 98/147/1 91/148/1 99/149/1
f 95/150/1 94/151/1 92/145/1
f 89/152/1 99/149/1 92/145/1
f 92/145/1 100/153/1 90/154/1
f 103/155/1 102/156/1 99/149/1
f 68/157/24 101/158/24 102/159/24
f 61/160/8 98/161/8 89/162/8
f 69/163/25 100/164/25 101/165/25
f 70/166/5 90/167/5 100/164/5
f 107/168/26 97/169/26 90/167/26
f 110/170/27 96/171/27 97/169/27
f 108/172/3 91/173/3 87/174/3
f 111/175/28 95/176/28 96/177/28
f 109/178/29 104/179/29 91/173/29
f 65/180/30 94/181/30 95/176/30
f 66/182/31 103/183/31 104/179/31
f 62/184/8 89/162/8 88/185/8
f 112/186/32 93/187/32 94/181/32
f 67/188/33 102/159/33 103/183/33
f 105/189/4 88/190/4 93/187/4
f 106/191/8 87/192/8 98/161/8
f 22/24/2 17/193/2 16/194/2
f 39/195/1 38/36/1 45/40/1
f 2/1/1 8/196/1 5/2/1
f 1/4/2 4/197/2 6/5/2
f 1/7/3 7/198/3 8/8/3
f 3/3/4 5/2/4 6/10/4
f 8/12/34 7/199/34 6/13/34
f 9/15/2 11/25/2 12/16/2
f 12/16/2 11/25/2 23/18/2
f 18/22/2 13/200/2 14/201/2
f 14/201/2 19/20/2 18/22/2
f 20/21/2 21/26/2 24/23/2
f 22/24/2 21/26/2 20/21/2
f 23/18/2 21/26/2 22/24/2
f 11/25/2 24/23/2 21/26/2
f 25/29/2 14/201/2 27/202/2
f 14/201/2 13/200/2 26/203/2
f 27/202/2 14/201/2 26/203/2
f 27/202/2 28/204/2 25/29/2
f 28/204/2 30/27/2 25/29/2
f 34/30/1 33/34/1 31/31/1
f 34/30/1 37/41/1 46/33/1
f 35/37/1 36/205/1 42/35/1
f 42/35/1 43/39/1 38/36/1
f 41/38/1 44/42/1 43/39/1
f 43/39/1 44/42/1 45/40/1
f 45/40/1 44/42/1 46/33/1
f 33/34/1 46/33/1 44/42/1
f 47/43/1 51/206/1 52/207/1
f 52/207/1 50/208/1 47/43/1
f 50/208/1 49/44/1 47/43/1
f 49/44/1 48/209/1 35/37/1
f 48/209/1 36/205/1 35/37/1
f 52/45/6 51/210/6 29/46/6
f 41/48/7 42/86/7 18/49/7
f 15/51/8 37/85/8 34/52/8
f 47/54/9 35/211/9 14/55/9
f 35/57/35 38/73/35 19/58/35
f 36/60/11 48/65/11 26/61/11
f 32/32/12 31/31/12 9/63/12
f 48/65/13 49/212/13 27/66/13
f 33/67/14 41/213/14 24/68/14
f 49/70/15 50/83/15 28/71/15
f 38/73/36 39/79/36 17/74/36
f 12/53/8 34/52/8 32/75/8
f 51/77/17 47/54/17 25/56/17
f 39/79/18 40/214/18 16/80/18
f 31/81/5 33/67/5 11/69/5
f 50/83/19 52/215/19 30/84/19
f 16/80/37 40/214/37 37/85/37
f 42/86/4 36/60/4 13/62/4
f 56/87/4 55/216/4 53/88/4
f 57/90/3 59/217/3 60/91/3
f 56/93/1 60/218/1 59/94/1
f 55/96/5 59/219/5 57/97/5
f 53/99/2 57/220/2 58/100/2
f 54/102/8 58/221/8 60/103/8
f 105/105/2 63/113/2 61/106/2
f 106/108/2 64/114/2 109/109/2
f 63/113/2 105/105/2 112/222/2
f 112/222/2 65/223/2 63/113/2
f 65/223/2 111/224/2 63/113/2
f 111/224/2 110/111/2 63/113/2
f 61/106/2 63/113/2 64/114/2
f 63/113/2 107/112/2 70/115/2
f 109/109/2 64/114/2 66/225/2
f 64/114/2 70/115/2 69/226/2
f 66/225/2 64/114/2 67/117/2
f 69/226/2 68/116/2 64/114/2
f 72/118/21 74/121/21 73/119/21
f 74/121/1 78/123/1 77/122/1
f 78/123/22 76/130/22 75/124/22
f 75/124/2 76/130/2 72/125/2
f 77/122/18 75/124/18 71/127/18
f 74/129/23 72/227/23 76/130/23
f 80/131/21 82/134/21 81/132/21
f 82/134/1 86/136/1 85/135/1
f 86/136/22 84/143/22 83/137/22
f 83/137/2 84/143/2 80/138/2
f 85/135/18 83/137/18 79/140/18
f 82/142/23 80/228/23 84/143/23
f 88/144/1 89/152/1 92/145/1
f 98/147/1 87/229/1 91/148/1
f 94/151/1 93/146/1 92/145/1
f 92/145/1 90/154/1 97/230/1
f 97/230/1 96/231/1 92/145/1
f 96/231/1 95/150/1 92/145/1
f 89/152/1 98/147/1 99/149/1
f 92/145/1 99/149/1 100/153/1
f 100/153/1 99/149/1 101/232/1
f 99/149/1 91/148/1 104/233/1
f 101/232/1 99/149/1 102/156/1
f 104/233/1 103/155/1 99/149/1
f 68/157/24 69/234/24 101/158/24
f 61/160/8 106/191/8 98/161/8
f 69/163/25 70/166/25 100/164/25
f 70/166/5 107/168/5 90/167/5
f 107/168/26 110/170/26 97/169/26
f 110/170/27 111/235/27 96/171/27
f 108/172/3 109/178/3 91/173/3
f 111/175/28 65/180/28 95/176/28
f 109/178/29 66/182/29 104/179/29
f 65/180/30 112/186/30 94/181/30
f 66/182/31 67/188/31 103/183/31
f 62/184/8 61/160/8 89/162/8
f 112/186/38 105/189/38 93/187/38
f 67/188/33 68/157/33 102/159/33
f 105/189/4 62/236/4 88/190/4
f 106/191/8 108/237/8 87/192/8
f 16/194/2 15/19/2 22/24/2
f 22/24/2 19/20/2 17/193/2
f 45/40/1 37/41/1 40/238/1
f 40/238/1 39/195/1 45/40/1
