# Blender v3.6.0 OBJ File: 'LMS Standard Semaphore Minecraft.blend'
# www.blender.org
mtllib LMS_Post_Rail_55.mtl
o Rail_55_plate_Cube.042
v 0.496230 0.000000 0.404759
v 0.403770 0.000000 0.404759
v 0.411191 0.000000 0.595228
v 0.403770 0.000000 0.587807
v 0.403770 0.000000 0.551968
v 0.488809 0.000000 0.595228
v 0.496230 0.000000 0.551968
v 0.496230 0.000000 0.587807
v 0.411122 0.000000 0.448497
v 0.403770 0.000000 0.439326
v 0.496230 0.000000 0.439326
v 0.488878 0.000000 0.448497
v 0.426313 0.000000 0.548374
v 0.434590 0.000000 0.538673
v 0.465410 0.000000 0.538673
v 0.473687 0.000000 0.548374
v 0.434590 0.000000 0.462108
v 0.426409 0.000000 0.451903
v 0.473591 0.000000 0.451903
v 0.465410 0.000000 0.462108
v 0.503770 0.000000 0.595241
v 0.596230 0.000000 0.595241
v 0.588809 0.000000 0.404772
v 0.596230 0.000000 0.412193
v 0.596230 0.000000 0.448032
v 0.511191 0.000000 0.404772
v 0.503770 0.000000 0.448032
v 0.503770 0.000000 0.412193
v 0.588878 0.000000 0.551503
v 0.596230 0.000000 0.560674
v 0.503770 0.000000 0.560674
v 0.511122 0.000000 0.551503
v 0.573687 0.000000 0.451626
v 0.565410 0.000000 0.461327
v 0.534590 0.000000 0.461327
v 0.526313 0.000000 0.451626
v 0.565410 0.000000 0.537892
v 0.573591 0.000000 0.548097
v 0.526409 0.000000 0.548097
v 0.534590 0.000000 0.537892
v 0.496230 1.000000 0.404759
v 0.403770 1.000000 0.404759
v 0.411191 1.000000 0.595228
v 0.403770 1.000000 0.587807
v 0.403770 1.000000 0.551968
v 0.488809 1.000000 0.595228
v 0.496230 1.000000 0.551968
v 0.496230 1.000000 0.587807
v 0.411122 1.000000 0.448497
v 0.403770 1.000000 0.439326
v 0.496230 1.000000 0.439326
v 0.488878 1.000000 0.448497
v 0.426313 1.000000 0.548374
v 0.434590 1.000000 0.538673
v 0.465410 1.000000 0.538673
v 0.473687 1.000000 0.548374
v 0.434590 1.000000 0.462108
v 0.426409 1.000000 0.451903
v 0.473591 1.000000 0.451903
v 0.465410 1.000000 0.462108
v 0.503770 1.000000 0.595241
v 0.596230 1.000000 0.595241
v 0.588809 1.000000 0.404772
v 0.596230 1.000000 0.412193
v 0.596230 1.000000 0.448031
v 0.511191 1.000000 0.404772
v 0.503770 1.000000 0.448031
v 0.503770 1.000000 0.412193
v 0.588878 1.000000 0.551503
v 0.596230 1.000000 0.560674
v 0.503770 1.000000 0.560674
v 0.511122 1.000000 0.551503
v 0.573687 1.000000 0.451626
v 0.565410 1.000000 0.461327
v 0.534590 1.000000 0.461327
v 0.526313 1.000000 0.451626
v 0.565410 1.000000 0.537892
v 0.573591 1.000000 0.548097
v 0.526409 1.000000 0.548097
v 0.534590 1.000000 0.537892
v 0.325000 0.325000 0.376247
v 0.325000 0.675000 0.376247
v 0.325000 0.325000 0.351247
v 0.325000 0.675000 0.351247
v 0.675000 0.325000 0.376247
v 0.675000 0.675000 0.376247
v 0.675000 0.325000 0.351247
v 0.675000 0.675000 0.351247
v 0.062500 0.500000 0.376247
v 0.062500 0.500000 0.351247
v 0.937500 0.500000 0.351247
v 0.937500 0.500000 0.376247
vt 0.925484 0.214479
vt 0.925484 0.175973
vt 0.963958 0.157498
vt 0.846991 0.018514
vt 0.846991 0.057020
vt 0.808517 0.075495
vt 0.917156 0.183255
vt 0.814574 0.233559
vt 0.814574 0.158102
vt 0.855319 0.125800
vt 0.957901 0.075495
vt 0.957901 0.150952
vt -0.000742 0.390413
vt 0.808517 0.465870
vt -0.000742 0.465870
vt 0.808517 0.535269
vt -0.000742 0.471926
vt 0.808517 0.471927
vt -0.000742 0.465870
vt 0.808517 0.465870
vt -0.000742 0.759559
vt 0.808517 0.788807
vt -0.000742 0.788807
vt 0.808517 0.818054
vt -0.000742 0.788807
vt 0.808517 0.788807
vt 0.808517 0.541326
vt -0.000742 0.535269
vt -0.000742 0.688171
vt 0.808517 0.695656
vt -0.000742 0.695656
vt 0.808517 0.723865
vt -0.000742 0.723865
vt 0.808517 0.759559
vt -0.000742 0.731350
vt 0.808517 0.731350
vt -0.000742 0.723865
vt 0.808517 0.723865
vt -0.000742 0.000039
vt 0.808517 0.007956
vt -0.000742 0.007956
vt 0.808517 0.086686
vt -0.000742 0.078768
vt 0.808517 0.078768
vt -0.000742 0.070440
vt 0.808517 0.078768
vt -0.000742 0.078768
vt 0.808517 0.157498
vt -0.000742 0.149170
vt 0.808517 0.149170
vt -0.000742 0.876549
vt 0.808517 0.894946
vt -0.000742 0.894946
vt 0.808517 0.070440
vt -0.000742 0.086686
vt -0.000742 0.913343
vt 0.808517 0.931741
vt -0.000742 0.931741
vt 0.808517 0.962613
vt -0.000742 0.950138
vt 0.808517 0.950138
vt 0.808517 0.987564
vt -0.000742 0.975088
vt 0.808517 0.975088
vt 0.808517 0.541326
vt -0.000742 0.616783
vt -0.000742 0.541326
vt -0.000742 0.321014
vt 0.808517 0.384357
vt -0.000742 0.384357
vt 0.808517 0.390413
vt -0.000742 0.390413
vt 0.808517 0.847301
vt -0.000742 0.818054
vt 0.808517 0.818054
vt -0.000742 0.847301
vt 0.808517 0.876549
vt -0.000742 0.876549
vt -0.000742 0.314957
vt 0.808517 0.321014
vt 0.808517 0.688171
vt -0.000742 0.680687
vt 0.808517 0.680687
vt -0.000742 0.652477
vt 0.808517 0.652477
vt -0.000742 0.616783
vt 0.808517 0.644992
vt -0.000742 0.644992
vt 0.808517 0.652477
vt -0.000742 0.652477
vt 0.808517 0.236227
vt -0.000742 0.228310
vt 0.808517 0.228310
vt -0.000742 0.314957
vt 0.808517 0.307040
vt 0.808517 0.314957
vt 0.808517 0.165826
vt -0.000742 0.157498
vt 0.808517 0.157498
vt -0.000742 0.236227
vt 0.808517 0.244555
vt -0.000742 0.244555
vt 0.808517 0.913343
vt -0.000742 0.894946
vt 0.808517 0.894946
vt -0.000742 0.165826
vt -0.000742 0.307039
vt 0.808517 0.950138
vt -0.000742 0.931741
vt 0.808517 0.931741
vt -0.000742 0.987563
vt 0.808517 1.000039
vt -0.000742 1.000039
vt -0.000742 0.962613
vt 0.808517 0.975088
vt -0.000742 0.975088
vt 0.846754 0.214557
vt 0.843821 0.232954
vt 0.814574 0.232954
vt 0.808517 0.226898
vt 0.808517 0.163555
vt 0.814574 0.157498
vt 0.846754 0.175895
vt 0.843821 0.157498
vt 0.854672 0.207802
vt 0.854672 0.182650
vt 0.917156 0.207802
vt 0.917156 0.182650
vt 0.935748 0.232954
vt 0.928264 0.226954
vt 0.928264 0.163498
vt 0.935748 0.157498
vt 0.963958 0.232954
vt 0.925721 0.018436
vt 0.928654 0.000039
vt 0.957901 0.000039
vt 0.963958 0.006096
vt 0.963958 0.069438
vt 0.957901 0.075495
vt 0.925721 0.057098
vt 0.928654 0.075495
vt 0.917803 0.025191
vt 0.917803 0.050343
vt 0.855319 0.025191
vt 0.855319 0.050343
vt 0.836727 0.000039
vt 0.844211 0.006039
vt 0.844211 0.069495
vt 0.836727 0.075495
vt 0.808517 0.000039
vt 0.935748 0.158102
vt 0.963958 0.158102
vt 0.963958 0.233559
vt 0.935748 0.233559
vt 0.928264 0.227558
vt 0.925484 0.215083
vt 0.854672 0.208407
vt 0.917156 0.208407
vt 0.928264 0.164103
vt 0.846754 0.215162
vt 0.925484 0.176578
vt 0.843821 0.233559
vt 0.846754 0.176499
vt 0.854672 0.183254
vt 0.808517 0.227502
vt 0.808517 0.164159
vt 0.843821 0.158102
vt 0.836727 0.150952
vt 0.808517 0.150952
vt 0.808517 0.075495
vt 0.836727 0.075495
vt 0.844211 0.081496
vt 0.846991 0.093971
vt 0.917803 0.100647
vt 0.855319 0.100647
vt 0.844211 0.144951
vt 0.925721 0.093892
vt 0.846991 0.132476
vt 0.928654 0.075495
vt 0.925721 0.132555
vt 0.917803 0.125800
vt 0.963958 0.081552
vt 0.963958 0.144895
vt 0.928654 0.150952
vt 0.808517 0.390413
vt 0.808517 0.759559
vt -0.000742 0.818054
vt -0.000742 0.541326
vt 0.808517 0.688171
vt -0.000742 0.759559
vt 0.808517 0.000039
vt -0.000742 0.157498
vt 0.808517 0.876549
vt 0.808517 0.913343
vt -0.000742 0.962613
vt -0.000742 0.987564
vt 0.808517 0.616783
vt -0.000742 0.847301
vt 0.808517 0.847302
vt 0.808517 0.314957
vt -0.000742 0.688171
vt 0.808517 0.616783
vt -0.000742 0.236227
vt 0.808517 0.236227
vt -0.000742 0.913343
vt -0.000742 0.950137
vt 0.808517 0.987564
vt 0.808517 0.962613
vt 0.025485 0.321605
vt 0.000000 0.000000
vt 0.025485 0.000000
vt 0.050970 0.624381
vt 0.229365 -0.000000
vt 0.229365 0.891973
vt 0.000000 0.678395
vt 0.025485 1.000000
vt -0.000000 1.000000
vt 0.764549 0.267592
vt 0.586154 0.891973
vt 0.586154 0.000000
vt 0.050970 0.678395
vt 0.025485 0.321605
vt 0.050970 0.321605
vt 0.025485 0.678395
vt 0.407759 0.624381
vt 0.407759 0.267592
vt 0.050970 1.000000
vt 0.025485 0.678395
vt 0.407759 0.267592
vt 0.407759 0.624381
vt 0.000000 0.321605
vt 0.050970 0.267592
vt 0.764549 0.624381
vt 0.050970 0.000000
vn 0.0000 -1.0000 0.0000
vn 0.0000 1.0000 -0.0000
vn 0.0000 -0.0000 -1.0000
vn 0.0000 0.0000 1.0000
vn -0.7071 0.0000 0.7071
vn -1.0000 0.0000 -0.0000
vn 1.0000 0.0000 0.0000
vn 0.7071 0.0000 0.7071
vn -0.7802 0.0000 0.6255
vn 0.7802 0.0000 0.6255
vn -0.7607 0.0000 -0.6491
vn 0.7607 0.0000 -0.6491
vn -0.1574 0.0000 -0.9875
vn 0.1574 -0.0000 -0.9875
vn -0.2175 0.0000 0.9761
vn 0.2175 0.0000 0.9761
vn 0.7071 -0.0000 -0.7071
vn -0.7071 -0.0000 -0.7071
vn 0.7802 -0.0000 -0.6255
vn -0.7802 -0.0000 -0.6255
vn 0.7607 -0.0000 0.6491
vn -0.7607 0.0000 0.6491
vn 0.1574 0.0000 0.9875
vn -0.1574 0.0000 0.9875
vn 0.2175 -0.0000 -0.9761
vn -0.2175 0.0000 -0.9761
vn -0.5547 0.8321 0.0000
vn 0.5547 0.8320 0.0000
vn 0.5547 -0.8320 0.0000
vn -0.5547 -0.8321 0.0000
vn 0.5547 0.8321 0.0000
vn 0.5547 -0.8321 0.0000
vn -0.5547 -0.8320 0.0000
usemtl minisema
s off
f 13/1/1 16/2/1 6/3/1
f 33/4/1 36/5/1 26/6/1
f 58/7/2 59/8/2 41/9/2
f 78/10/2 79/11/2 61/12/2
f 2/13/3 41/14/3 1/15/3
f 6/16/4 43/17/4 3/18/4
f 3/18/5 44/19/5 4/20/5
f 4/21/6 45/22/6 5/23/6
f 7/24/7 48/25/7 8/26/7
f 8/27/8 46/28/8 6/16/8
f 9/29/9 50/30/9 10/31/9
f 10/31/6 42/32/6 2/33/6
f 1/34/7 51/35/7 11/36/7
f 11/36/10 52/37/10 12/38/10
f 13/39/11 54/40/11 14/41/11
f 15/42/12 56/43/12 16/44/12
f 17/45/9 58/46/9 18/47/9
f 19/48/10 60/49/10 20/50/10
f 5/51/13 53/52/13 13/53/13
f 14/41/6 57/54/6 17/45/6
f 20/50/7 55/55/7 15/42/7
f 16/56/14 47/57/14 7/58/14
f 18/59/15 49/60/15 9/61/15
f 12/62/16 59/63/16 19/64/16
f 21/65/4 62/66/4 61/67/4
f 26/68/3 63/69/3 23/70/3
f 23/70/17 64/71/17 24/72/17
f 24/73/7 65/74/7 25/75/7
f 27/76/6 68/77/6 28/78/6
f 28/79/18 66/80/18 26/68/18
f 29/81/19 70/82/19 30/83/19
f 30/83/7 62/84/7 22/85/7
f 21/86/6 71/87/6 31/88/6
f 31/88/20 72/89/20 32/90/20
f 33/91/21 74/92/21 34/93/21
f 36/94/22 75/95/22 76/96/22
f 37/97/19 78/98/19 38/99/19
f 39/100/20 80/101/20 40/102/20
f 25/103/23 73/104/23 33/105/23
f 34/93/7 77/106/7 37/97/7
f 40/102/6 75/95/6 35/107/6
f 36/108/24 67/109/24 27/110/24
f 38/111/25 69/112/25 29/113/25
f 32/114/26 79/115/26 39/116/26
f 18/117/1 9/118/1 10/119/1
f 10/119/1 2/120/1 18/117/1
f 2/120/1 1/121/1 18/117/1
f 1/121/1 11/122/1 19/123/1
f 11/122/1 12/124/1 19/123/1
f 17/125/1 18/117/1 19/123/1
f 18/117/1 1/121/1 19/123/1
f 19/123/1 20/126/1 17/125/1
f 14/127/1 17/125/1 20/126/1
f 14/127/1 20/126/1 15/128/1
f 4/129/1 5/130/1 13/1/1
f 13/1/1 14/127/1 15/128/1
f 16/2/1 7/131/1 8/132/1
f 13/1/1 15/128/1 16/2/1
f 3/133/1 4/129/1 13/1/1
f 8/132/1 6/3/1 16/2/1
f 6/3/1 3/133/1 13/1/1
f 38/134/1 29/135/1 30/136/1
f 30/136/1 22/137/1 38/134/1
f 22/137/1 21/138/1 38/134/1
f 21/138/1 31/139/1 39/140/1
f 31/139/1 32/141/1 39/140/1
f 37/142/1 38/134/1 39/140/1
f 38/134/1 21/138/1 39/140/1
f 39/140/1 40/143/1 37/142/1
f 34/144/1 37/142/1 35/145/1
f 37/142/1 40/143/1 35/145/1
f 24/146/1 25/147/1 33/4/1
f 33/4/1 34/144/1 35/145/1
f 36/5/1 27/148/1 28/149/1
f 33/4/1 35/145/1 36/5/1
f 23/150/1 24/146/1 33/4/1
f 28/149/1 26/6/1 36/5/1
f 26/6/1 23/150/1 33/4/1
f 53/151/2 45/152/2 44/153/2
f 44/153/2 43/154/2 53/151/2
f 43/154/2 46/155/2 53/151/2
f 46/155/2 48/156/2 56/157/2
f 48/156/2 47/158/2 56/157/2
f 54/159/2 53/151/2 56/157/2
f 53/151/2 46/155/2 56/157/2
f 56/157/2 55/160/2 54/159/2
f 57/161/2 54/159/2 55/160/2
f 57/161/2 55/160/2 60/162/2
f 50/163/2 49/164/2 58/7/2
f 58/7/2 57/161/2 60/162/2
f 59/8/2 52/165/2 51/166/2
f 58/7/2 60/162/2 59/8/2
f 42/167/2 50/163/2 58/7/2
f 51/166/2 41/9/2 59/8/2
f 41/9/2 42/167/2 58/7/2
f 73/168/2 65/169/2 64/170/2
f 64/170/2 63/171/2 73/168/2
f 63/171/2 66/172/2 73/168/2
f 66/172/2 68/173/2 76/174/2
f 68/173/2 67/175/2 76/174/2
f 74/176/2 73/168/2 76/174/2
f 73/168/2 66/172/2 76/174/2
f 76/174/2 75/177/2 74/176/2
f 77/178/2 74/176/2 80/179/2
f 74/176/2 75/177/2 80/179/2
f 70/180/2 69/181/2 78/10/2
f 78/10/2 77/178/2 80/179/2
f 79/11/2 72/182/2 71/183/2
f 78/10/2 80/179/2 79/11/2
f 62/184/2 70/180/2 78/10/2
f 71/183/2 61/12/2 79/11/2
f 61/12/2 62/184/2 78/10/2
f 2/13/3 42/185/3 41/14/3
f 6/16/4 46/28/4 43/17/4
f 3/18/5 43/17/5 44/19/5
f 4/21/6 44/186/6 45/22/6
f 7/24/7 47/187/7 48/25/7
f 8/27/8 48/188/8 46/28/8
f 9/29/9 49/189/9 50/30/9
f 10/31/6 50/30/6 42/32/6
f 1/34/7 41/190/7 51/35/7
f 11/36/10 51/35/10 52/37/10
f 13/39/11 53/191/11 54/40/11
f 15/42/12 55/55/12 56/43/12
f 17/45/9 57/54/9 58/46/9
f 19/48/10 59/192/10 60/49/10
f 5/51/13 45/193/13 53/52/13
f 14/41/6 54/40/6 57/54/6
f 20/50/7 60/49/7 55/55/7
f 16/56/14 56/194/14 47/57/14
f 18/59/15 58/195/15 49/60/15
f 12/62/16 52/196/16 59/63/16
f 21/65/4 22/197/4 62/66/4
f 26/68/3 66/80/3 63/69/3
f 23/70/17 63/69/17 64/71/17
f 24/73/7 64/198/7 65/74/7
f 27/76/6 67/199/6 68/77/6
f 28/79/18 68/200/18 66/80/18
f 29/81/19 69/201/19 70/82/19
f 30/83/7 70/82/7 62/84/7
f 21/86/6 61/202/6 71/87/6
f 31/88/20 71/87/20 72/89/20
f 33/91/21 73/203/21 74/92/21
f 36/94/22 35/107/22 75/95/22
f 37/97/19 77/106/19 78/98/19
f 39/100/20 79/204/20 80/101/20
f 25/103/23 65/205/23 73/104/23
f 34/93/7 74/92/7 77/106/7
f 40/102/6 80/101/6 75/95/6
f 36/108/24 76/206/24 67/109/24
f 38/111/25 78/207/25 69/112/25
f 32/114/26 72/208/26 79/115/26
usemtl Lattice
f 82/209/27 90/210/27 89/211/27
f 84/212/3 91/213/3 90/214/3
f 88/215/28 92/216/28 91/217/28
f 86/218/4 89/219/4 92/220/4
f 87/221/1 81/222/1 83/223/1
f 88/215/2 82/209/2 86/224/2
f 92/220/4 81/225/4 85/226/4
f 91/227/29 85/228/29 87/221/29
f 90/214/3 87/229/3 83/230/3
f 89/211/30 83/223/30 81/222/30
f 82/209/27 84/231/27 90/210/27
f 84/212/3 88/232/3 91/213/3
f 88/215/31 86/224/31 92/216/31
f 86/218/4 82/233/4 89/219/4
f 87/221/1 85/228/1 81/222/1
f 88/215/2 84/231/2 82/209/2
f 92/220/4 89/219/4 81/225/4
f 91/227/32 92/216/32 85/228/32
f 90/214/3 91/213/3 87/229/3
f 89/211/33 90/234/33 83/223/33
